<?xml version="1.0" encoding="utf-8"?>
<!-- Generator: Adobe Illustrator 25.2.0, SVG Export Plug-In . SVG Version: 6.00 Build 0)  -->
<svg version="1.1" id="Layer_1" xmlns="http://www.w3.org/2000/svg" xmlns:xlink="http://www.w3.org/1999/xlink" x="0px" y="0px"
	 viewBox="0 0 849.1 1204.2" style="enable-background:new 0 0 849.1 1204.2;" xml:space="preserve">
<style type="text/css">
	.st0{fill:#333333;}
</style>
<g>
	<path class="st0" d="M488.4,53c-1,8.6,4.9,13.6,6.1,20.6c1.8,11,3.1,16.1,0.3,26.6c-0.7,2.5-1.6,5.8-0.5,7.8
		c5.4,10.7,1.2,22,2.4,32.9c0.2,1.8-1.9,3.8-2.2,5.8c-1.3,9.1-7.2,18.2-0.5,27.5c0.4,0.6,0,1.8,0.1,2.7c0.9,15.9,1.5,31.8,2.8,47.7
		c0.7,10.7,2.4,21.3,5,31.8c1.8,6.5,1.2,13.6,2.6,20.6c2.5,12.4,2.1,25.4,3.2,38.1c0.6,6.9,2.1,13.7,2.6,20.6s-1.3,13.9,0.4,20.3
		c4.9,19,1.3,38.2,2.3,57.3c0.2,4.1-2,8.2-2.5,12.5c-0.4,4.1-0.4,8.1,0,12.2c1.6,19.2,7.4,37.2,16.6,54.1c1.5,2.7,4.4,4.6,6.6,6.8
		c15.9,15.5,26.3,34.7,35.3,54.6c2.6,5.7,3.4,12.4,3.7,18.7c0.6,10.8,0.2,21.7,0.2,32.5c0,7.2-0.3,14.5,0.1,21.7
		c0.4,6.4,3.2,13,2.4,19.2c-4.4,34-1.7,68-2.5,102c-5.4,21.6-2,43.6-2.6,65.3c-0.6,22.1-0.1,44.3-0.1,66.5c0,50.2,0,100.4,0,150.6
		c0,7-0.2,13.8,2.5,20.7c3.4,8.6,2.8,18,3.2,27.3c0.3,7.3-2.7,14.9,2.2,22.2c1.2,1.8-1.5,6.3-2.4,9.5c-0.6,2.1,4.9,3.7,0.5,6.1
		c-1.1,9.3-7.6,13.9-15,18.2c-13.1,7.5-27.4,10.7-41.9,13.6c-7.7,1.7-15.5,2.6-23.3,2.8c-7.3,0.1-14.3,3.2-22,2.7
		c-8.1-0.6-16.3-0.6-24.4,0c-7.3,0.6-14.4,3.3-22,2.7c-12.7-1.1-25.3-3.8-38.2-3s-26.2,0.4-39.3,0c-4.6-0.1-9.2-1.9-13.8-2.5
		c-4.2-0.4-8.4-1.2-12.6-2.3c-6.9-1.9-14.5-1.2-21.9-2.8c-8.2-1.8-14.9-5.9-21.8-9.8c-3.1-1.8-8.3-15.6-8.3-20.9
		c-0.1-14.9-0.3-29.8,0.1-44.8c0.1-5.5,1.9-11,2.5-16.5c0.7-5.5-1-11.2,2.5-16.7c1.5-2.2,0.2-6.2,0.2-9.3V853.3
		c-5.4-42-1.6-84.3-2.7-126.4c-4.9-15.2-2.2-30.9-2.6-46.4c-0.4-15.8-0.4-31.7,0-47.5c0.2-7.3,2-14.6,2.5-22
		c0.5-7.4,0.1-14.5,0.1-21.7c0-7.7-1.1-15.6,0.3-23c2.2-11.9,5.9-23.7,13.2-33.8c5.3-7.4,11-14.4,16.2-21.8
		c3.3-4.4,6.1-9.1,8.6-14.1c5.5-11.5,15.3-20.2,19.5-32.6c2.2-6.5,5.1-12.6,4.8-19.7c-0.4-9.5,0.3-19-0.2-28.5
		c-0.4-7.3-1.6-14.6-2.6-21.9c-1.1-7.6,2-14.6,2.6-22s-1.5-15,0.5-21.6c2.8-8.8,1.7-17.4,2.4-26.1c0.4-5.1,3.5-9.7,2.8-15.2
		c-0.6-4.7-1-9.7,2.5-13.8c0.2-0.3,0-0.9,0-1.3c0.9-13.2,2.3-26.4,2.6-39.6c0.4-15,4.8-29.8,2.8-45c4.7-10.1,0.8-21.2,3.1-31.4
		c1.7-8.1,2.4-16.4,2.3-24.7c0.1-2.6-0.4-5.2-1.3-7.6c-5.2-13-5.4-16.9-1.6-31.2c0.9-3.3,0.3-7.5,2.2-9.9c3.7-4.6-4.5-5.8-2-9.5
		c-5.1-13.2,1.9-24.4,6.6-35.7c1.9-4.5,7.9-5.9,13.5-6.2c9.6-0.5,19.1-2.1,28.7-2.5c9.9-0.5,19.9-0.1,29.9-0.1s20,0.8,29.8-0.2
		C470.4,49.4,478.4,55.1,488.4,53z M469.6,83.2c0.3,0.8,0.6,2.2,1,2.2c6.9,0.8,13.9,0.8,20.9-0.1c-1.1-4.2-2.5-7.5-2.7-10.8
		c-0.4-5.7-3.7-9.4-7-13.4c-3-3.5-6.5-2-9.9-2.4c-0.9-0.1-1.9,0.2-2.7,0c-12.9-4.4-26.3-4.8-39.8-5.7c-17.9-1.1-35.3,4.1-53.2,3.1
		c-1.5-0.1-3.1,1.3-4.7,1.7c-4.7,1-7.9,4.3-10.2,7.8c-1.9,3.1-2.4,7.2-2.8,11c-0.4,4-5.6,7.4-1.5,12c0.9,0.2,1.7,0.2,2.6,0
		c5-2,10-4.2,15.1-6.4c-5.1-4.6-1.8-10.3-2.8-15.3h5.4c0,3.1,0,5.3,0,7.5c0.1,4.3,2.4,3.9,5.1,2.4c0.3-4.3,0.7-8.5,1-12.7l4.3,0.3
		c-0.8,1.8-1.9,3.4-2.2,5.1c-0.4,2.7,0.2,5.4-0.2,8.1c-0.2,1.7-1.4,3.3-2.5,5.9c7.7-1.2,14.9,1.8,21.3-2.9c0.9-0.7,3.2-0.7,3.9,0
		c5,4.9,11,1.9,16.5,2.6c8.6,1,17.5-1.9,26,2.6c1.9,1,5.8,0.6,7.5-0.8C461.8,81.8,465.8,84,469.6,83.2z M366.4,99.5v-7.8
		c-3.2,2-4.8,4.3-5.3,6.9c-1.4,6.3-1.3,13-3.5,18.9c-3.5,9.7-2.8,18.6,1.5,27.5c0.5,1.1,1.8,2.2,1.8,3.3c0.1,13.6,0.1,27.1,0.1,40.7
		c-4.3,5.4-2.1,11.9-2.8,17.9c-0.7,6.4-2,12.8-2.6,19.2c-0.9,8.7,0.7,17.3-2.4,26.1c-2.1,6.1,0,13.5-0.5,20.2
		c-0.5,6.9-2.6,13.8-2.4,20.6c0.4,16.5-4.9,32.6-2.9,49.1c0.1,0.9,0.4,2.2,0,2.6c-5.2,4.9-1.7,11.1-2.6,16.6s-2.7,11-2.5,16.5
		c0.5,14.6-1,29.1,2,43.8c2.4,11.8,1.6,24-2.3,35.4c-5.3,15.7-10.8,31-22.4,43.8c-9.8,10.8-17.7,23.3-26.4,35.1
		c-0.7,1-1.2,2.2-1.6,3.4c-5.6,17-11.4,34-11.9,52c-0.6,24-0.1,48-0.1,71.9c0,24.4-0.4,48.9,0.1,73.3c0.5,23.6-2.5,47.4,2.6,70.8
		v232.1c0,1.8,0.6,3.9-0.1,5.4c-6.2,12.2-4,26.1-7.8,38.8c-1.7,5.8-0.6,12.6-0.2,18.9c0.4,4.2,1.4,8.4,3,12.3
		c3.5,9.3,7.2,20,20.8,18.7c5.5,3.8,13.3,0.4,17.5,3.3c5.5,3.8,11,0.8,16.4,3.6c5.1,2.6,12.2,0.8,18.4,1.4c5.5,0.6,11,2.4,16.5,2.5
		c18.5,0.3,37.1,0.5,55.7,0s37.2,0.5,56-1.9c15.5-2,31.3-2.1,46.5-6.2c10.5-2.9,21.3-4.5,31-10.5c8.8-5.6,14.5-12,14.2-22.9
		c-0.2-9,0-18.1,0-27.1c0-4.3-1.3-8.4-2.3-12.6c-1.9-7.8-7.2-14.8-5.9-23.4c0.6-3.7-0.8-7.8,2.4-10.9c-4.3-3.6-1.9-8.4-2.2-12.6
		c-0.4-5-0.4-10,0-14.9c0.4-4.6,2.4-9.2,2.5-13.8c1.2-63-0.2-125.9,2.2-188.9c2.6-67.8,0.6-135.7,0.6-203.6c0-8.3-0.2-16.4-2.4-24.8
		c-3.7-14.2-13.3-37.9-21.5-48.2c-8.6-10.8-17.8-21.1-25.2-33c-9-14.4-14.4-30.8-15.7-47.7c-1-11.2-0.1-22.7,1.7-34.2
		c1.8-11.8,2.4-24.5-1.6-36.9c-2.7-8.5,1.6-18.5-3.1-27.2c2-13.4-3.8-26.3-2.6-39.6c1.6-18.8-4.2-37.1-2.8-55.9
		c0.1-0.9,0.4-2.2,0-2.7c-5.5-5.9-1.5-12.9-2.6-19.3s-2.1-12.8-2.7-19.2c-1.1-12.7-1.8-25.5-2.8-38.2c-0.1-1.2-0.9-2.3-1.3-3.5
		c-2-6.9-3.2-13.3,2.8-19.5c3.4-3.5,6.4-9.8,3.5-14.3s-1.7-8.5-2.3-12.7c-1.1-7.7-2-15.4-3.3-23.1c-0.2-1.5-2-2.8-3.2-4.5
		c-5.2,8.9,1.6,16,1.3,23.8c-0.3,7.5,1.5,15.2,2.5,23.7c-5-0.9-8.6-2.4-8.1-6.6c1.6-12.1-3.6-23.6-2.9-35.5c0.1-1.6-0.5-3.1-1.2-7.3
		c-2.3,3.6-4.4,5.6-4,6.5c3.3,7.1,2.4,14.6,2.6,22c0.1,4.3,4.2,7.9,2.5,12.4c-0.5,1.3-2.6,1.9-4.7,3.3c-1.5-8.6-0.9-15.9-2.8-23.3
		c-1.7-6.8-2.5-13.9-4.5-21.8l-4.1,6.4c-0.9-0.7-1.8-1.4-2.7-2.1c-1-1-1.9-2.2-2.9-3.3c-0.9,1.2-1.7,2.4-2.5,3.6
		c-0.4,0.6-1,1.1-1.4,1.6l-3.2-5.2c-4.6,3.4-9.3-0.3-13.9-0.1c-10.3,0.4-20.7,0.1-31,0.2c-0.5,0.1-1,0.4-1.3,0.9
		c-0.8,1.9-1.3,3.1-2.2,5.3c-1-2.9-1.6-4.5-2.1-5.9h-21.1V102l-1.8,0.1c-0.4-3.6-0.8-7.2-1.3-10.8C366.7,92.8,372,99,366.4,99.5z"/>
	<path class="st0" d="M456,479.5h-77.6c-1-4.3-2-8.6-3.2-13.6c11.2,0,22.5,0.3,33.7-0.1c29.6-1,59.3-2.3,89.9-3.5
		c0.1,5.5,1.3,10.2,5.8,12.9c7.4,21.3,23,37.5,34.6,56.2c9.3,14.7,15.3,31.2,17.8,48.4c3.4,22.9,3.3,45.7,1.6,68.1
		c-2.8,36.3-1.6,72.6-2,108.8s1.9,72.5-0.8,108.5c-2,26.9-1.4,53.6-1.9,80.3c-0.6,27.1-0.1,54.3-0.2,81.4c0,3.4,1.5,7.3-2.3,9.8
		c-1.3,0.9-2.8,1.4-5.8,2.9c0-4.8,0.3-8.3-0.1-11.8c-0.4-4.2,1.9-8.9-2.5-12.7c-1.1-1-1-4.9,0-6.5c4.5-7,2.4-14.7,2.5-22
		c0.2-39.8-1.9-79.7,0.6-119.4c2.9-45.8,1.3-91.6,2.2-137.3c0.1-4.4,1.1-9.2-5.4-12c0,12.3,1.3,24.5-0.3,36.4
		c-4.7,34.4-1.8,68.9-2.3,103.4c-0.6,34.8-0.2,69.7,0,104.5c0,7.1-4,13.3-3,20.6c0.9,7.1,0,14.5,0.3,21.7c0.2,4.7,0,9.1,2,14.1
		c1.9,4.6-1.5,11.4-4.3,17.2c-0.2-2.9-0.5-5.8-0.5-8.7c0-119.9,0-239.8,0-359.6c0-11,5-21.7,2.6-32.8c-3.5-15.8-1.9-31.8-3-47.8
		c-0.7-9.2-3.9-18.3-5.6-27.5c-0.8-4.2-5.7-7.5-7.6-11.7c-7.2-15.7-16.8-30.1-24.5-45.5c-0.4-0.7,0-1.7,0.1-2.7
		c2.3-2.1,3.1,0.7,3.8,1.6c13.9,20.2,25.4,41.8,36.5,63.6c2.3,4.2,3.4,8.9,3.2,13.7c-0.6,13.7,3.8,27,2.8,41
		c-1,13.5-0.2,27.1-0.2,40.7c0,14,0,28,0,42.1c0.2,0.8,0.5,1.6,1,2.3c5.7-2,4.4-6.8,4.4-11c0-28,0-56.1,0-84.1
		c0-3.2,0.6-6.5-0.1-9.5c-3.6-14.8-2.3-30.7-9.8-44.8c-7.1-13.5-12.5-27.9-23-39.3c-2.2-2.4-3.3-5.8-5.1-8.7
		c-3.7-5.9-6.5-12.5-14.7-14.1c-3.5-0.7-6.7-3.4-10-5.2c-0.4-0.1-0.8-0.2-1.2-0.2c-1.4-5.3-2.8-10.5-4.2-15.8
		c-3.7,0.4-1.3,5.9-6.2,5.3c-5.1-0.6-6.4-3.6-7.7-7.8h-23.7c2.4,7.5,9.3,3.5,13.4,5.5L456,479.5z M484.2,468.4
		c0.9,7.8,4.6,13.8,9.3,19.2c0.3,0.4,2.2-0.7,4.1-1.3c-2.3-3.6-5.4-6.6-6-10C490.8,471.6,489.1,469.1,484.2,468.4L484.2,468.4z
		 M415,469.1h-15.8v4.5H415V469.1z M383.2,468.2c0,2.8-0.3,5.3,0.2,7.6c0.1,0.6,2.7,0.7,4.4,1C387.7,470.3,387.7,470.3,383.2,468.2
		L383.2,468.2z M433,476.9c0.8-1,1.3-1.4,1.2-1.6c-0.6-2.2,1.8-5.5-2.1-6.5c-0.8-0.2-1.7,0-2.4,0.5c-2.7,3,0.2,4.5,1.9,6.3
		C432,475.8,432.3,476.1,433,476.9L433,476.9z M397.7,470.9c-2.1-1.2-3.5-2.4-4-2.1c-1.2,0.7-1.9,2.1-2.8,3.2c0.9,0.7,2,2.1,2.6,1.9
		C394.8,473.6,395.8,472.4,397.7,470.9L397.7,470.9z"/>
	<path class="st0" d="M437,273.2c14.5,0,28.9-0.1,43.4,0c5.9,0,7.9,2.1,8.2,7.7c0.9,14.5,0.5,29.3,3.1,43.5
		c2.1,11.5,0.8,23,2.8,34.1c1.2,6.9,2.9,13.8,2,20.6c-0.8,6.6,3.2,12.4,0.7,19.6c-2.3,6.9-0.5,15.2-0.5,22.9v35.6h-6.9
		c-2.2-4-4.2-8.3-4.2-13.9c0.1-4.9-2-9.9-3.3-14.8c-0.1-0.5-2.3-0.4-4-0.7c-2.6,9.3,6,17.9,0.3,28.3c-1.3-8.1-2-15.2-3.7-22
		c-5.1-20.3-0.4-41-3-61.2c-1.9-14.6-0.2-29.4-2.8-43.5c-2.8-14.7-1.3-29.2-2.1-43.7c-0.2-3.2-0.5-5.4-5.5-3.9v50.7
		c4.8,7.8,2.6,16.4,2.5,24.6c-0.1,13.7,4.1,27,3.1,40.9c-0.9,13.5-0.2,27.1-0.2,40.6c-0.8-0.3-2.2-0.6-2.2-1
		c-0.1-11.9-3.5-23.3-3.5-35.3c0-24-0.1-48.2-3-71.9c-1.6-13.7-1.7-27.3-2.1-40.9c-0.2-5-2.5-8.4-6.5-12.7
		c-2.7,6.4-1.4,11.7-1.6,16.8c-0.2,4.8,0,9.7-1.1,14.5c-2.5-6.3-1.4-12.8-1.6-19.2c-0.3-9.2-0.8-9.8-10.9-10.5L437,273.2z
		 M472.9,281.6c-0.3,1.2-0.5,2.5-0.5,3.7c0.7,10.9-0.8,21.7,2.2,32.8c2.6,9.5-1.4,20.2,3.1,29.9c-1.6,20.5,4.7,40.6,2.7,61.1
		c-0.2,2.2,0.1,4.5-0.1,6.7c-0.1,1.3-3.5,1.5-1.5,3.9c6.8-3.1,7.3-3.1,7-8.6c-0.9-12.7,1.5-25.3-2.2-38.2c-3-10.3,2.1-22-3.1-32.5
		c2-13.3-3.8-26.2-2.6-39.4C478.6,293.7,475,288,472.9,281.6L472.9,281.6z"/>
	<path class="st0" d="M437.4,186.4v-26.8H418c0,10.9,0.5,22.1-0.1,33.2c-0.8,12.3,3.1,24.9-2.4,36.9c-0.5,1.7-0.2,3.5,0.9,4.9
		c3.8,4.6,0.6,9.2,1.1,13.8c-7.3-9.7-4.3-20.7-4.4-31.3c4.1-3.1,2.2-7.5,2.2-11.3c0.2-18.6,0.1-37.1,0.1-55.6
		c-0.1-2.6,0.7-5.2,2.5-7.2v13.1h11v-12.8l2-0.2c0.5,4.4,0.9,8.8,1.4,13.8c8.6-2.4,1.9-10.5,6.9-14.6c0.4,4.8,0.7,9.1,1,13.3
		c3.7,1.8,7.4,1.5,9.2-2.2c1.5-2.9,1.4-6.6,3.3-10.2c0.4,4.3,0.8,8.6,1.2,13c7.9-3.5,3.7-10,5.1-14.6c-5.3-4-10.8-4.3-16.6-4.2
		c-20.8,0.2-41.6,0.1-62.5,0.1H372v-1.9c1.9-0.3,3.8-0.9,5.6-0.7c17.9,1.3,35.3-4.6,53.2-2.8c11.4,1.1,22.8,1.8,34.1,2.9
		c1.5,0.1,2.7,2.1,4.9,3.9c-5.1,3.6-7.4,8.4-4.9,14.2c0.3,0.6,2.3,0.5,3.5,0.8c1.9-12.8,1.9-12.8,11.8-13c0,2.1,0.5,4.4-0.1,6.4
		c-3.1,9.8-3.2,11.9-2.5,21.2c1.1,13.2,1.7,26.4,2.8,39.6c0.5,6.4,2.1,12.8,2.5,19.2c0.5,6.8-0.2,13.6,0.2,20.3
		c0.2,3.7,2,7.4,2.5,11.1s0.1,7.9,0.1,13.4c-3.4-2.1-5.9-2.8-6.6-4.3c-1.8-3.7-3.7-7.8-4.1-11.8c-0.8-8.7-1.2-17.3-2.4-26.1
		c-2.4-17.1-2.1-34.5-3.3-51.7c-0.2-2.8-1.8-5.5-3.4-10.1c-2.7,12.7-2.6,25.7,0.3,38.4c0.6,2.5,0.4,5.3,0.4,8c0,9,0,18.1,0,27.1
		c0.1,5.2-0.9,10.4,2.5,15.3c1.6,2.2-0.3,4.2-5.3,5.6c0-3.3-0.2-6.4,0-9.4c1.2-15.6-4.9-30.8-2.8-46.4c-4.5-9.2-2.2-19.1-2.7-28.7
		c-0.1-2.2,0.3-4.6-0.4-6.6c-0.8-2.3-2.4-4.4-5-8.7c0,18.3-0.4,34.4,0.1,50.6c0.5,15.4,1.9,30.7,0.9,46.3c-0.5-1.7-0.8-3.3-1-5.1
		c-0.1-11-3.9-21.6-3-32.8c0.8-10.8,0.8-21.7,0-32.6c-0.3-6-3.7-11.6-2.5-17.9c0.5-1.9,1.2-3.8,2-5.6c-2.6-1.6-3.7-6.7-10.1-6v27.2
		L437.4,186.4z"/>
	<path class="st0" d="M434.3,278.6c0,17.2-2.1,34.7,0.6,51.5c2.8,17.9,1.1,35.5,2.1,53.2c0.3,2.3-0.4,4.7-2,6.4
		c-0.4-2.3-0.6-4.7-0.6-7.1c0.7-16.5-4-32.5-3-49.1c1-16.2,0.2-32.4,0.2-48.3c-6.3-4.5-4.2,3.6-7,4c-3.1-1.6,1.9-9.2-6.5-7.5v10.5
		c0,39.4-0.1,78.7,0.1,118.1c0,7.8-1.6,15.8,2.4,23.4c1.4,2.7,0.2,6.8,0.2,11.5c-5-5.7-5.5-10.9-5.5-16.6c0.1-46.1,0.1-92.3,0-138.4
		c0-3.9-0.3-7.8-0.5-13.1l-11.4,7.9l-2.7-6.4c-10.6,0-21.4-0.1-32.2,0.1c-4.8,0.1-7,2.4-7.4,7.2c-0.9,14.1-0.7,28.4-3.1,42.2
		c-2.1,12.4-0.2,25-2.8,36.8c-4,18.3-1.6,36.5-2.1,54.6c-0.6,26.5,2.5,25.7-8.3,58.2c-0.1,0.3,0.4,0.7,1,1.7c5-3.2,5.7-8.9,8.3-13.4
		c5.5,4.9-0.5,8.9-1.6,12.7c-2.3,8.4-5.9,16.5-15.6,19.9c-3.5,1.2-6.2,4.7-9.2,7.3c-4.4,3.8-8.6,7.7-12.9,11.5
		c-0.4-2.9,0.6-4.9,2.8-7c16.8-15.8,25.7-35.7,29.9-58.1c3.4-18,2.4-21.9,0.4-39.8c-1.3-11.1-2.9-23.1,1.7-34.3
		c0.4-0.8,0.6-1.6,0.5-2.5c-1.9-13.4,3.2-26.3,2.8-39.5c-0.4-12.8,4.6-25.2,2.7-38.2c4.8-7.8,1.9-16.4,2.8-24.6
		c0.7-6.4,2.1-12.8,2.6-19.2s-1.6-13.3,0.5-18.8c3.3-8.4,1.6-16.6,2.3-24.8c1-11.8,2.2-23.6,2.6-35.5c0.5-11.6,0.1-23.2,2.1-34.9
		c0.3,1.9,0.5,3.9,0.6,5.8c0,13.1,1.5,26.4-0.3,39.3c-2.6,17.7-0.4,35.7-2.9,53.1c-1.8,12.4-1.3,24.5-2.4,37.5
		c2.9,0,5.4,0.7,7.2-0.1c8.4-4,17.3-2,26-2.6c11.8-0.8,23.6-1.8,35.5-2.6c1.9-0.1,4.8-1.1,4.9,2.6c-5.3,0.4-10.8-0.9-16.4,0.9
		C424.3,280.4,429.6,278.3,434.3,278.6z"/>
	<path class="st0" d="M298.6,1046.9c5.3,0,8.1-0.7,10.4,0.1c9.4,3.1,19.6,0.7,28.7,3c15.1,3.9,30.1,1.1,45.1,2.3
		c1.7,0.1,3.3,0,6.2,0l-3.2-3.9c9.5-2,62.9-2.2,77.6,0c-7.5,1.8-13.2,1-18.9,1.1c-5.9,0.2-11.8-0.1-17.6,0.1
		c-5.7,0.1-11.4-0.7-17,2.7h9c22.1,0,44.3-0.4,66.5,0.2c7.1,0.2,12.9-3,19.3-5.6h-21l-0.1-2c7-0.6,14.2-0.5,21-2
		c6.7-1.6,13.6-1.5,20.3,0.2c7.1,1.8,15,0.4,25.8,0.4c-4.8,3.1-6.6,5-8.8,5.6c-2.5,0.7-5.9-0.6-7.9,0.6c-2.8,1.7-5.2,2.8-8.5,2.5
		c-13.8-1.3-27,4-40.9,2.9c-13.5-1-27.1-0.4-40.7-0.1c-4.2,0.1-8.3,2.1-12.5,2.5c-4.5,0.4-9.2,0.8-13.5,0c-25.7-5-51.8-0.4-77.5-3.1
		C327.4,1053.2,313.8,1053.4,298.6,1046.9z"/>
	<path class="st0" d="M344.2,585.8v427.9c-0.6,0.1-1,0.3-1.3,0.2s-0.9-0.6-0.9-0.9c0-142.3,0-284.7,0-427L344.2,585.8z"/>
	<path class="st0" d="M537.5,1122.9c-4.5,5.7-12,5.2-17.8,7.4c-5.1,2-11.6,2.3-17.6,3.4c-6.4,1.1-12.8,2.1-19.2,2.7
		s-12.8,0.7-19.3,2.3c-8.4,2-17.6,0.5-26.5-0.8c6.9-1.7,14.5,0.2,20.7-1.9c6.5-2.2,12.8-1.6,20.1-2.7v-21.1l1.4-0.1l4.8,18.9h6.9
		v-24.4c5.3,4.5,5.3,4.5,6.7,21.4h3.6c3.9-11.7-2.3-22.6-1.9-33.8c-9.2-2.9-19-2.6-28.1-4.5c-9.5-2-19.1-1-28.5-3.3
		c8.4-2.4,17.1-1.2,25.6-1.4c2.4,3.9,6.4,2.2,9.8,2.6c10.4,1.1,20.8,2.1,31.2,3.2c0.4,0,0.6,1.4,1,2.2h-7.7c-0.2,2-1.1,4.5-0.4,6.1
		c3.2,7.1,2.2,14.6,2.7,21.9c0.2,2.5,2.1,4.9,5.3,6.8v-18.6c5.2,0.9,1.8,5,2.7,7.5c1.1,3,2,6,5.1,8.7v-20.8l1.6-0.3
		c1.3,3,3.3,5.8,3.8,8.9c0.7,3.8,0.2,7.8,0.2,14.6l5.6-7.7L537.5,1122.9z"/>
	<path class="st0" d="M552,1111.8c0.1-9.9,3.7-19.2-0.4-29c-2.7-6.3-0.2-14.5-3-21.7c-1.5-3.8-0.4-4.2,6.1-12.4
		c2.5,6.9,6.6,13.3,6.9,19.9c0.6,11.4,4.7,22.4,3.2,34c-0.9,7.7-0.2,7.8-6.6,17.5h-12.5c0-6.6,0-12.4,0-18.2
		c-0.1-5.2,0.2-10.2-2.5-15.2c-2.1-4,1.2-9.2-2.3-14c-1.9-2.6-0.3-7.6-0.3-11.9c3.3,3,5.2,7.2,5.2,11.6c0.2,5.1,2,10,2.5,15.1
		c0.5,5.1-0.3,10,0.2,14.8C548.9,1105.7,550.8,1108.7,552,1111.8z"/>
	<path class="st0" d="M413,940.5V585.9c0.8,0,1.2-0.1,1.4,0s0.9,0.6,0.9,1c0,117.9,0,235.8,0,353.7L413,940.5z"/>
	<path class="st0" d="M464.2,754.7c-2-1.8-2.7-2.1-2.7-2.4c1.9-21.9-3.5-43.4-2.9-65.2c0.6-22.1,0.1-44.2,0.1-66.3s0-44.2,0-66.4
		c0-1.6,0.7-3,1.9-4c0.3,2.6,0.4,5.3,0.8,7.9c5.5,31.1,1.9,62.5,2.5,93.7c0.6,31.6,0.1,63.2,0.1,94.8L464.2,754.7z"/>
	<path class="st0" d="M481,562.8c1.1,1.2,1.7,1.5,1.7,1.8c0.6,18.1,3.5,36.1,3.4,54.3c-0.5,89.1-0.2,178.2-0.2,267.3v13.6
		c-4.9-2.4-2.6-6.2-2.6-9c-0.1-95.4-0.2-190.9-0.1-286.3c0-12.8-4.6-25.3-2.8-38.2C480.6,565.4,480.7,564.5,481,562.8z"/>
	<path class="st0" d="M529.3,712.7h-5.4v-71.6c4.6-9.7,2.5-20,2.5-30c0-5.5-2-10.9-2.5-16.5s0.5-10.9-0.3-16.2s-3.2-10.4-4.6-15.6
		c-0.4-2.1-0.7-4.3-0.8-6.5c3.7,0.6,5.2,2,5.7,5.5c1.9,12.8,7.1,25,5.3,38.3c5.2,11.9,2.3,24.5,2.5,36.8c0.1,8.2-2,16.3-2.4,24.6
		c-0.5,8.5-0.1,17.1-0.1,25.7L529.3,712.7z"/>
	<path class="st0" d="M442.4,706.2c-2-2-2.6-2.3-2.6-2.6c1.4-27.2-3.9-54.2-3-81.4c0.9-27.5,0.2-55,0.2-82.6c0-0.8,0.5-1.6,1-3.4
		c0.8,1.4,1.6,2.2,1.6,3c-0.2,17.3,4,34.2,3,51.7c-1,18-0.2,36.1-0.2,54.1L442.4,706.2L442.4,706.2z"/>
	<path class="st0" d="M471.7,555.4c1.1,10.3,3.1,20.7,3.1,31c0.3,62.9,0.1,125.7,0.1,188.6v13.3l-1.9,0.1c-0.4-2.5-0.7-5-0.8-7.5
		c0-60.6-0.2-121.2,0.2-181.8c0-7.2-2.6-13.7-2.9-20.6s0-13.6,0-20.4c0.1-1,0.2-1.9,0.4-2.9L471.7,555.4z"/>
	<path class="st0" d="M287.6,580v228c-0.9-0.7-2.5-1.3-2.6-2.2c-0.2-2.2-0.3-4.5-0.1-6.8c0-70,0-140.1,0.1-210.2
		C285.1,586,282.4,581.6,287.6,580z"/>
	<path class="st0" d="M429.2,441.5c-1-2.3-3-4.6-2.9-6.9c0.6-14.2-4-28-3.1-42.3c1-14.9,0.2-29.8,0.2-44.8c0-14.5,0-29,0-43.4
		c0.1-1.5,0.8-2.8,2-3.7c0.2,2,0.6,4,0.6,5.9c0,16.3-0.3,32.6,0.1,48.9c0.5,19.1,0.5,38.3,3.1,57.2
		C430.7,422,431.1,431.3,429.2,441.5z"/>
	<path class="st0" d="M473.2,835.4h4.6v66.1c-5.9,15.4-0.8,31.6-3.4,48.1C471.7,940.3,471,861,473.2,835.4z"/>
	<path class="st0" d="M404.4,713c0,12.7,0.7,25.4-0.2,38c-0.6,7.8,3.2,14.5,3,22c-0.2,7.7,0.3,15.4-0.1,23.1
		c-0.5,9.1-2.1,18.2-2.5,27.4c-0.5,9.3-0.1,18.7-0.7,28c-2-7.1-3-128.8-1.6-137.4C402.3,713.5,403.6,713.3,404.4,713z"/>
	<path class="st0" d="M493,528.8c8.5,11.3,14.5,24.3,17.4,38.1c0.3,1.6,2.7,3.1,2.5,4.3c-1.1,6,2.7,11,2.8,16.5
		c0.3,24.3,0.1,48.6-1.5,73.3c-0.4-1.6-0.7-3.3-1-4.9c-0.1-0.4-0.1-0.9,0-1.3c2.1-25.1-2.7-49.8-3.2-74.8
		c-0.3-13.1-5.7-26.2-11.9-38.3C495.9,537.6,494.6,533.1,493,528.8z"/>
	<path class="st0" d="M326.2,1027.3V857.2c0.8,0.1,1.2,0.1,1.4,0.3s0.8,0.7,0.8,1c0,56.3,0,112.7,0,169L326.2,1027.3z"/>
	<path class="st0" d="M449.5,541.9c1.2,9.4,3.5,18.8,3.6,28.2c0.4,37.1,0.2,74.2,0.1,111.2c0,1.5-0.6,3-1.7,4c-0.5-2-0.8-4.1-1-6.2
		c-0.1-27.1-0.5-54.3,0.2-81.4c0.2-9-3.5-17.2-3-26c0.4-8.6,0.1-17.2,0.1-25.8v-4.5L449.5,541.9z"/>
	<path class="st0" d="M426.6,704.3V540.6C429.5,551,430.1,680.9,426.6,704.3z"/>
	<path class="st0" d="M409.9,435.7c-8.7-42.2-3.8-84.6-3.6-127c0.4,2.2,0.7,4.4,0.8,6.6c0.1,14.4,0.7,28.9-0.1,43.3
		c-1.3,23.2,4.3,46,2.9,69.2C409.7,430.5,409.9,433.1,409.9,435.7z"/>
	<path class="st0" d="M524.4,1032.7V877.2C527.2,887.5,527.9,1009.7,524.4,1032.7z"/>
	<path class="st0" d="M457.2,452.7c-4.5-8.7-4.8-18-6.5-27c-0.2-1.3-0.2-2.7,0-4c1.9-26.8-2.9-53.3-2.7-80c0-2.9,0.4-5.8,0.6-9.4
		c1.2,1.2,1.8,1.5,1.8,1.8c-0.2,21.3,4.8,42.3,3.1,63.7c-0.3,3.8,1,7.6,1.5,11.5c0.4,3.2-4,6.2,0.9,9.8c1.7,1.3,0.3,6.8,0.3,10.5
		c0,4-0.5,8.2,0.1,12.1C456.8,445.1,460.9,448.1,457.2,452.7z"/>
	<path class="st0" d="M341.2,1124.5l1.6,10.8c1.4-3.4,2.1-5,3.1-7.2c1,2.1,1.8,3.8,2.9,6.1c8.8-10.2,0.8-22.6,6.3-35.7
		c0.3,12.6,0.6,22.6,0.8,32.6h2c0.2-10,0.5-20,0.7-30h2.4c0,9.7-0.1,19.5,0.1,29.2c0,1.4,2,2.7,4.6,5.8c0.5-7.8,0.9-13.3,1.3-18.7
		l1.1,0.1c1,6.7,2.1,13.4,3.3,21.3c-5.8-0.8-11.8-1.9-17.9-2.3s-12.5-0.1-21-0.1c2.7-2.7,4.4-4,5.5-5.6S339.8,1127.4,341.2,1124.5z"
		/>
	<path class="st0" d="M491.8,544.9c4.4,7.4,8.3,14.9,7.6,23.8c9.3,25.7,4,52.3,4.8,78.5c-5.1-10.6-0.5-22.2-4.1-33.5
		c-3.5-11-0.1-24-1.9-35.9C496.7,566.8,494.1,555.9,491.8,544.9z"/>
	<path class="st0" d="M528.4,856.6h-3.9c3.7-6.7,1.7-13.6,2-20.4c0.3-7.2,0.1-14.4,0.1-21.6c0-7.7,0.5-15.4-0.1-23
		c-0.6-6.8,3.1-14.3-2.6-20.5c0.9-6.8,2.2-13.6,2.6-20.5c0.5-7,0.1-14.1,0.6-21.2C529.9,738.8,530.4,834.1,528.4,856.6z"/>
	<path class="st0" d="M289,808c1.8,10.5,2,130.2,0.2,143.7C287.1,942,287,822.4,289,808z"/>
	<path class="st0" d="M490.7,563.6c1.1,10.3,3,20.6,3.2,31c0.5,27.1,0.1,54.3,0.1,81.4v9.2l-1.7,0.2c-0.5-2-0.8-4.1-1-6.2
		c-0.1-27.6,0.2-55.2-0.2-82.8c-0.1-10-1.7-20-2.6-30.1c0-1,0.2-1.9,0.4-2.9L490.7,563.6z"/>
	<path class="st0" d="M295.3,830.1V955C292.4,946.2,291.6,859.3,295.3,830.1z"/>
	<path class="st0" d="M504.4,667.2v122.3C501.5,780.5,500.8,695,504.4,667.2z"/>
	<path class="st0" d="M405,712.7c0-39.3,0-78.9,0-118.4c0-0.2,0.6-0.4,1.7-1c0,39.9,0,79.3-0.1,118.7
		C406.6,712.3,405.2,712.7,405,712.7z"/>
	<path class="st0" d="M513.5,788.5V671.2C516.4,681,517,763.7,513.5,788.5z"/>
	<path class="st0" d="M515.3,873.7v117.4C512.5,981,511.8,896.6,515.3,873.7z"/>
	<path class="st0" d="M418.2,960.8c-1.3,4.5,1.1,9-2.1,13.8c-1.9,2.9-1.9,8.3-0.6,11.7c5.2,13.5,0.7,27.2,3.2,42.2
		c-4.9-2.7-6.3-5-6.2-8.9c0.2-17.2,0-34.4,0.2-51.6c0-2.8,1.7-5.5,2.6-8.3L418.2,960.8z"/>
	<path class="st0" d="M336.1,743.3v109C333.2,842.8,332.5,768.7,336.1,743.3z"/>
	<path class="st0" d="M505.4,932.3V831.1C508.2,841.3,508.7,910.5,505.4,932.3z"/>
	<path class="st0" d="M385.4,1139.2c0-10.8,0-20.8,0.1-30.7c0-0.6,1-1.2,2.4-2.9v27.7l5.6,0.4V1107c5,9.1-0.5,19.7,7.2,29.3h11.4
		c-3.6,3.9-7.8,2.6-11.8,2.8C395.8,1139.3,391.3,1139.2,385.4,1139.2z"/>
	<path class="st0" d="M293.6,810.2v-98C296.4,721.5,297.1,784.4,293.6,810.2z"/>
	<path class="st0" d="M432,1024.7v-98.2C434.9,936,435.6,1000,432,1024.7z"/>
	<path class="st0" d="M496.8,741.1c0,28.8,0,57.7-0.1,86.5c0,0.7-0.9,1.4-2.7,4.3v-91.7L496.8,741.1z"/>
	<path class="st0" d="M396.8,650v-90.3C399.6,569.8,400.1,628,396.8,650z"/>
	<path class="st0" d="M423.9,264.6v-87.1C426.8,186.6,427.4,238.7,423.9,264.6z"/>
	<ellipse class="st0" cx="288.7" cy="996.6" rx="1.4" ry="59.5"/>
	<path class="st0" d="M323.4,766.7v-84.9C326.2,691.9,326.8,745.1,323.4,766.7z"/>
	<path class="st0" d="M282.5,1117.5c-0.1-5.7,0-11.4-0.3-17.1c-0.2-3.8,1.6-7.9-2.1-11.4c-1-0.9-0.2-4.1,0.2-6.2s2-4,1.9-5.9
		c-0.6-8.6,0.8-17.2,4-25.1c2.7,3.9,1.5,7.8,1.3,11.2c-0.1,3.3-2.1,6.4-2.4,9.7c-0.5,4-0.1,8.1-0.1,12.2v32.6L282.5,1117.5z"/>
	<path class="st0" d="M352.4,955.1v82C349.5,1027.4,349,978.3,352.4,955.1z"/>
	<path class="st0" d="M336.1,917v78.9C333.2,986.9,332.6,942.5,336.1,917z"/>
	<path class="st0" d="M494,1024.8v-80.2C497.4,954.7,498,998.6,494,1024.8z"/>
	<path class="st0" d="M389,641.9c-0.3-7.5-0.5-15.1-0.9-22.6c-0.5-7.8,0.4-15.4-2.2-23.3c-2.3-6.9-0.5-15.1-0.5-22.8
		c0-1.5,0.6-2.9,1.8-3.9c0.3,1.7,1.1,3.6,0.8,5.2c-1.8,10.2,2.9,19.8,2.8,29.9c-0.1,10.3,0,20.7,0,31v6.4L389,641.9z"/>
	<path class="st0" d="M371.4,963.1v73.4C368.5,1027.7,367.9,988.3,371.4,963.1z"/>
	<path class="st0" d="M428.4,808.4v73.5C425.5,873,425,833.2,428.4,808.4z"/>
	<path class="st0" d="M466.9,967.6c-4.3-3.5-0.5-8.9-5.4-11.9c-0.4-0.2-0.3-1.8,0-2.6c5.9-13.5,0.3-27.9,4.1-43.7
		c2.3,11.3,0.9,20.8,1.2,30.2S466.9,958.3,466.9,967.6z"/>
	<path class="st0" d="M406.7,200.4v65.8C403.9,256.4,403.4,222.1,406.7,200.4z"/>
	<path class="st0" d="M496.3,841v65.5C493.5,897.3,492.9,864.3,496.3,841z"/>
	<path class="st0" d="M360.5,971.3v62.7C357.7,1025,357.2,994.7,360.5,971.3z"/>
	<path class="st0" d="M380,666.4v-61.6C383.3,615.5,383.8,643.8,380,666.4z"/>
	<path class="st0" d="M372.3,636.4v-60.4C375.1,585.9,375.6,615.4,372.3,636.4z"/>
	<path class="st0" d="M439.7,186.3c3.7,0,2.7,2.8,2.7,4.8c0.1,17.4,0,34.8,0,52.2c-3.7,0-2.7-2.8-2.7-4.8
		C439.7,221.2,439.7,203.8,439.7,186.3z"/>
	<path class="st0" d="M513.5,853.6V796C516.3,805.7,516.7,832.7,513.5,853.6z"/>
	<path class="st0" d="M433.8,205.9v54.9C431,251.1,430.6,226.6,433.8,205.9z"/>
	<path class="st0" d="M336.1,585.9v47.9c-2.9-7.9-2-16.1-2.2-24.1s0-16,0-24L336.1,585.9z"/>
	<path class="st0" d="M428.4,746v48c-3.2-7.8-2-16-2.2-24s0-16,0-24H428.4z"/>
	<path class="st0" d="M358.7,948.7v-45.2c3.4,7.3,1.9,15,2.2,22.5s0.1,15.1,0.1,22.6H358.7z"/>
	<path class="st0" d="M360.5,379.6v45.2c-3.2-7.4-2-15.1-2.2-22.7s-0.1-15.1-0.1-22.6L360.5,379.6z"/>
	<path class="st0" d="M453.8,989.5v-45.2c0.7-0.1,1.1-0.3,1.3-0.2c0.4,0.2,0.9,0.6,0.9,0.9c0,14.8,0,29.5,0,44.2L453.8,989.5z"/>
	<path class="st0" d="M483.2,1022c0-4.8,0.1-9.7,0-14.5c-0.2-6,1.2-12.1-2.5-17.8c-1.6-2.5,0.3-4.1,4.8-4.8v37.1H483.2z"/>
	<path class="st0" d="M472.8,1024.7v-42.5c3.2,6.9,2,14.1,2.2,21.2s0,14.2,0,21.3L472.8,1024.7z"/>
	<path class="st0" d="M502.2,521.3c-9.7-6.5-14.2-16.3-15.2-27.9L502.2,521.3z"/>
	<path class="st0" d="M505.7,994.8c-1.3-12.3-2.5-24.6-3.8-36.9C506.2,969.9,509.2,982.1,505.7,994.8z"/>
	<path class="st0" d="M325.2,626.5v39.8c-3.2-6.4-2-13.2-2.2-19.8s0-13.3,0-19.9L325.2,626.5z"/>
	<path class="st0" d="M377.7,1032.9v-39.7c0.7-0.1,1.1-0.3,1.3-0.1s0.9,0.6,0.9,0.9c0,12.9,0,25.9,0,38.8L377.7,1032.9z"/>
	<path class="st0" d="M378.2,1136c1.3-11.7-6.8-22.5-1.8-37.4C376.6,1113.1,382.1,1124.1,378.2,1136z"/>
	<path class="st0" d="M409.4,148.7v37l-1.3,0.2v-37L409.4,148.7z"/>
	<path class="st0" d="M361.4,593.1V556c3,6,2,12.3,2.2,18.5s0,12.4,0,18.6L361.4,593.1z"/>
	<path class="st0" d="M461.2,94c0.1,5.7-0.2,11.4,0.4,17.1c0.5,4.9,1.8,9.8,3.4,17.8c-3.5-3.6-6-4.9-6-6.3c-0.4-9.5-0.2-19-0.2-28.5
		L461.2,94z"/>
	<path class="st0" d="M395.8,995.8v34.3c-3.3-5.5-2-11.5-2.2-17.2s-0.1-11.5-0.1-17.2L395.8,995.8z"/>
	<path class="st0" d="M434.7,97.3c3,7.4,1.2,15.3,4.8,22.6c1.5,3-0.9,4.8-4.8,3.3V97.3z"/>
	<path class="st0" d="M387.6,998.4v34.3c-3.3-5.4-1.9-11.4-2.2-17.1s-0.1-11.5-0.1-17.2L387.6,998.4z"/>
	<path class="st0" d="M461.9,832v-34.4c3.3,5.5,1.9,11.4,2.2,17.1s0.1,11.5,0.1,17.2L461.9,832z"/>
	<path class="st0" d="M288.1,1111.5v-34.3c3.3,5.5,2,11.4,2.2,17.2s0.1,11.5,0.1,17.2L288.1,1111.5z"/>
	<path class="st0" d="M295.8,1119.7V1107c3.6,5.9,2.2,12,2.8,18.3h-7.8v-13.2l3.1,7.5L295.8,1119.7z"/>
	<path class="st0" d="M404.9,1024.7V993c3.2,5,2,10.5,2.2,15.8s0,10.6,0,15.9L404.9,1024.7z"/>
	<path class="st0" d="M440.2,967.6V936C443.2,946.5,442,957.1,440.2,967.6z"/>
	<path class="st0" d="M514.5,550.4c-3.5-7-6.8-13.6-10.1-20.3l1.3-1.3c1.5,1.3,4.2,2.5,4.4,4C511,538.7,518.6,543,514.5,550.4z"/>
	<path class="st0" d="M442.9,405.8v-28.9c3.2,4.5,2,9.5,2.2,14.3s0,9.7,0,14.5L442.9,405.8z"/>
	<path class="st0" d="M423,835.7v28.9C419.8,855,421.2,845.2,423,835.7z"/>
	<path class="st0" d="M423,887.2v28.9C419.8,906.5,421.2,896.8,423,887.2z"/>
	<path class="st0" d="M398.5,162.3v28.9l-1.3,0.2l-1.3-28.9L398.5,162.3z"/>
	<path class="st0" d="M356,688v-28.9C359.2,668.7,357.8,678.4,356,688z"/>
	<path class="st0" d="M304,533.8c-2.1,8-5.3,15.4-10.9,21.7C293.8,546.9,297.3,539.9,304,533.8z"/>
	<path class="st0" d="M404,946.8v28.9c-3.2-4.5-2-9.5-2.2-14.3s0-9.7,0-14.5L404,946.8z"/>
	<path class="st0" d="M371.4,235.6v28.9c-3.2-4.5-2-9.6-2.2-14.4s0-9.7,0-14.5L371.4,235.6z"/>
	<path class="st0" d="M356,655.5v-26.2C359.4,637.9,357.6,646.7,356,655.5z"/>
	<path class="st0" d="M387.6,448.7c-7.6-9.3-4.3-17.8-3.1-26.1C385.5,430.4,386.4,438.2,387.6,448.7z"/>
	<path class="st0" d="M434.8,747.8v-26.2c3.1,4,2,8.6,2.2,13s0,8.8,0,13.2L434.8,747.8z"/>
	<path class="st0" d="M414.8,545.2v26.2C411.5,562.7,413.2,553.9,414.8,545.2z"/>
	<path class="st0" d="M466.4,998.5v26.2C463.1,1016,464.8,1007.2,466.4,998.5z"/>
	<path class="st0" d="M293.6,1000.3v-26.2c3.1,4,2,8.7,2.2,13s0,8.8,0,13.2L293.6,1000.3z"/>
	<path class="st0" d="M476.3,490.9c1.5,6.3,8.9,10.8,5.9,19.8C480,503.1,473.2,498.5,476.3,490.9z"/>
	<path class="st0" d="M399.5,441.1v-23.8c1,0.5,2.2,0.8,2.2,1.1c0.1,7.5,0.1,15,0.1,22.5L399.5,441.1z"/>
	<ellipse class="st0" cx="356.9" cy="592.2" rx="1" ry="17.3"/>
	<path class="st0" d="M444.7,1003.8v22.7c-3.5-4.9-1.9-8.8-2.2-12.2s-0.1-6.9-0.1-10.4L444.7,1003.8z"/>
	<path class="st0" d="M333.4,686.2V709c-3.5-4.9-1.9-8.8-2.2-12.2s-0.1-6.9-0.1-10.4L333.4,686.2z"/>
	<path class="st0" d="M374.1,656.5v20.8C370.9,670.4,372.3,663.4,374.1,656.5z"/>
	<path class="st0" d="M483.6,970.4v-22.8c3.5,5,1.9,8.9,2.2,12.3s0.1,7,0.1,10.5L483.6,970.4z"/>
	<path class="st0" d="M396.7,693.4v-20.8C400,679.5,398.5,686.5,396.7,693.4z"/>
	<path class="st0" d="M355.4,1090.3c7.3-3.1,14.5-2.7,21.8-0.5c-3.7,0.2-7.3,0.4-11,0.5S359,1090.3,355.4,1090.3z"/>
	<path class="st0" d="M361,628.3v-20.9c3.7,6.9,2.3,13.9,2.8,20.9L361,628.3z"/>
	<path class="st0" d="M363.4,116.3v21.3C359.9,128.7,360.1,121.7,363.4,116.3z"/>
	<path class="st0" d="M396.7,223.9v-20.8C399.9,209.9,398.3,216.9,396.7,223.9z"/>
	<ellipse class="st0" cx="454.7" cy="1015.7" rx="1" ry="13.4"/>
	<path class="st0" d="M387.6,659.1v18.3c-1-0.5-2.2-0.8-2.2-1.1c-0.1-5.7-0.1-11.4-0.1-17.1L387.6,659.1z"/>
	<path class="st0" d="M404,1112.4v18l-1.6,0.2c-0.2-3-0.5-6.1-0.6-9.1s0-6,0-9L404,1112.4z"/>
	<ellipse class="st0" cx="351.5" cy="934.2" rx="1" ry="13.4"/>
	<path class="st0" d="M379.5,1049.1h-18.1C367.3,1045.7,373.5,1047.7,379.5,1049.1z"/>
	<path class="st0" d="M290.8,658.2v-18C294,646,292.6,652.2,290.8,658.2z"/>
	<path class="st0" d="M452.8,102.6v18.3c-1-0.5-2.2-0.8-2.2-1.1c-0.1-5.7-0.1-11.4-0.1-17.1L452.8,102.6z"/>
	<path class="st0" d="M395.8,311.7v18.1C392.6,323.9,394,317.7,395.8,311.7z"/>
	<ellipse class="st0" cx="362.3" cy="347.9" rx="1" ry="13.4"/>
	<path class="st0" d="M364.2,522.5v-15.6c1,0.5,2.1,0.8,2.2,1.1c0.1,4.8,0.1,9.6,0.1,14.4L364.2,522.5z"/>
	<path class="st0" d="M425.7,1009.4v15.3C422.4,1019.7,424.1,1014.5,425.7,1009.4z"/>
	<path class="st0" d="M366.4,99.5c0,4.3,0.2,8.7-0.1,13c-0.1,1.2-1.7,2.2-2.6,3.3c0-4.3-0.2-8.7,0.1-13
		C363.9,101.6,365.5,100.6,366.4,99.5z"/>
	<path class="st0" d="M423.9,1003v-15.6c1,0.5,2.1,0.8,2.2,1.1c0.1,4.8,0.1,9.6,0.1,14.4L423.9,1003z"/>
	<path class="st0" d="M290.4,563.7c0,4.3,0.2,8.7-0.1,13c-0.1,1.2-1.7,2.2-2.6,3.3c0-4.3-0.2-8.7,0.1-13
		C287.9,565.8,289.5,564.8,290.4,563.7z"/>
	<path class="st0" d="M527.3,1120.2v-16.1l1.3-0.1c0.2,2.8,0.5,5.5,0.6,8.2s0,5.4,0,8.1L527.3,1120.2z"/>
	<path class="st0" d="M537.8,1122.3v-15.9C541.1,1115,541.1,1117,537.8,1122.3z"/>
	<path class="st0" d="M471.9,1112.4v15.3l-1.5,0.2c-0.3-2.6-0.6-5.2-0.8-7.8s0-5.2,0-7.8L471.9,1112.4z"/>
	<path class="st0" d="M352.4,873.6v15.8C349.3,882.2,350.5,877.9,352.4,873.6z"/>
	<path class="st0" d="M385.9,984v-13.4C390.7,975.2,386.3,979.8,385.9,984z"/>
	<path class="st0" d="M535.2,1089.8v-12.6C538.3,1081.2,537.1,1085.6,535.2,1089.8z"/>
	<path class="st0" d="M366.9,299.8v-12.6C370,291.3,368.8,295.6,366.9,299.8z"/>
	<path class="st0" d="M326.1,595.8V580C329.3,587.2,328,591.5,326.1,595.8z"/>
	<path class="st0" d="M357.8,545.1v13.5C353.1,553.9,357.3,549.3,357.8,545.1z"/>
	<path class="st0" d="M328.9,576.7v-15.5C332.4,568.2,330.3,572.5,328.9,576.7z"/>
	<path class="st0" d="M293.6,585v-13.4C298.4,576.2,294,580.7,293.6,585z"/>
	<path class="st0" d="M406.6,547.8v13.5C402,556.6,406.2,552,406.6,547.8z"/>
	<path class="st0" d="M440.2,899.8v-15.7C443.3,891.2,442.1,895.5,440.2,899.8z"/>
	<path class="st0" d="M334.1,1134.2l-5.4-0.9c0.9-1.8,1.7-3.6,2.3-5.5c0.4-1.5,0.4-3.2,2.1-4.8
		C333.5,1126.5,333.8,1130.1,334.1,1134.2z"/>
	<path class="st0" d="M418.5,1136.9h12.6C427.1,1140,422.7,1138.8,418.5,1136.9z"/>
	<path class="st0" d="M478.4,563.7V553h1.2v10.6L478.4,563.7z"/>
	<path class="st0" d="M421.2,818.4v-9.9l1.7-0.1l0.7,9.9L421.2,818.4z"/>
	<path class="st0" d="M355.6,1092.3h-10.6v-1.2h10.6L355.6,1092.3z"/>
	<path class="st0" d="M346.9,550.5v9.9l-1.7,0.1c-0.2-3.3-0.4-6.6-0.6-9.8L346.9,550.5z"/>
	<path class="st0" d="M444.7,108.1v9.9l-1.7,0.1c-0.2-3.3-0.5-6.6-0.7-9.9L444.7,108.1z"/>
	<path class="st0" d="M349.6,528.9v9.9l-1.7,0.1l-0.7-10L349.6,528.9z"/>
	<path class="st0" d="M440.2,726v-9.9l1.7-0.1c0.2,3.3,0.5,6.7,0.7,10L440.2,726z"/>
	<path class="st0" d="M350.6,837.3v-9.9l1.7-0.1l0.7,10L350.6,837.3z"/>
	<path class="st0" d="M375,172.3v-9.9l1.7-0.1l0.7,9.9L375,172.3z"/>
	<path class="st0" d="M304,533.8c-0.4-4.2,1.1-7.1,5.4-8.2v5.4L304,533.8z"/>
	<path class="st0" d="M509.6,1093.3h11.1c-0.2,0.7-0.4,1.4-0.7,2.1C516.7,1095,512.6,1097.7,509.6,1093.3z"/>
	<path class="st0" d="M439.3,425.7v9.9l-1.7,0.1c-0.2-3.3-0.4-6.7-0.7-10L439.3,425.7z"/>
	<path class="st0" d="M395.8,433.9v9.9l-1.7,0.1l-0.7-10L395.8,433.9z"/>
	<path class="st0" d="M468.9,438.8v10.6h-1.2v-10.6L468.9,438.8z"/>
	<path class="st0" d="M505.3,1022v-9.9l1.7-0.1c0.2,3.3,0.4,6.6,0.7,9.9L505.3,1022z"/>
	<path class="st0" d="M334.3,883.5v-9.9l1.7-0.1l0.7,10L334.3,883.5z"/>
	<path class="st0" d="M358.7,449.1v-9.9l1.6-0.1l0.7,10L358.7,449.1z"/>
	<path class="st0" d="M357.8,523.4v9.9l-1.7,0.1c-0.2-3.3-0.5-6.6-0.7-9.9L357.8,523.4z"/>
	<ellipse class="st0" cx="294.5" cy="1019.7" rx="1" ry="7.7"/>
	<path class="st0" d="M410.3,1127.8v-9.9l1.7-0.1c0.2,3.3,0.5,6.7,0.7,10L410.3,1127.8z"/>
	<path class="st0" d="M420.3,1118v9.9l-1.6,0.1l-0.7-10H420.3z"/>
	<path class="st0" d="M361.5,536.1v-9.9l1.7-0.1c0.2,3.3,0.4,6.5,0.6,9.8L361.5,536.1z"/>
	<path class="st0" d="M421.2,943.3v-9.9l1.7-0.1c0.2,3.3,0.4,6.5,0.6,9.8L421.2,943.3z"/>
	<path class="st0" d="M301.7,1097.9v-7.2l1.4-0.1l1,7.3L301.7,1097.9z"/>
	<path class="st0" d="M462.5,477.1c-0.7-2-1.4-4-2-5.6C463,470.4,464.3,471.9,462.5,477.1z"/>
	<path class="st0" d="M325.2,775.9v7.2l-1.4,0.1c-0.3-2.4-0.6-4.9-1-7.3L325.2,775.9z"/>
	<path class="st0" d="M472.8,973v-7.2l1.4-0.1c0.3,2.4,0.7,4.8,1,7.3L472.8,973z"/>
	<path class="st0" d="M394,986.7v-7.2l1.4-0.1c0.3,2.4,0.7,4.8,1,7.2L394,986.7z"/>
	<ellipse class="st0" cx="457.4" cy="543.3" rx="1" ry="5.8"/>
	<path class="st0" d="M334.3,1032.9v-7.2l1.4-0.2c0.3,2.4,0.7,4.7,1,7.1L334.3,1032.9z"/>
	<ellipse class="st0" cx="299.9" cy="581.3" rx="1" ry="5.8"/>
	<path class="st0" d="M445.7,542l-0.4-7.9l1.8-0.2l1,8L445.7,542z"/>
	<ellipse class="st0" cx="386.8" cy="339.7" rx="1" ry="5.8"/>
	<ellipse class="st0" cx="435.7" cy="513.5" rx="1" ry="5.8"/>
	<path class="st0" d="M508.1,1109.3l-0.4-7.9l1.8-0.2l1,8L508.1,1109.3z"/>
	<path class="st0" d="M360.5,509.8v7.2l-1.4,0.1l-1-7.2L360.5,509.8z"/>
	<path class="st0" d="M426.6,742.3v-7.2l1.4-0.1c0.3,2.4,0.7,4.9,1,7.3L426.6,742.3z"/>
	<path class="st0" d="M414.8,116.2v7.2l-1.4,0.1c-0.3-2.4-0.7-4.8-1-7.2L414.8,116.2z"/>
	<path class="st0" d="M485.9,555.5c5.2,1.3,1.7,5.5,2.7,8.2C483.4,562.4,486.9,558.2,485.9,555.5z"/>
	<path class="st0" d="M293.1,555.5c-1,2.7,2.5,6.9-2.7,8.2C291.4,561,287.9,556.8,293.1,555.5z"/>
	<path class="st0" d="M390.4,257.4v7.2l-1.4,0.1l-1-7.2L390.4,257.4z"/>
	<path class="st0" d="M334.2,547v-7.6C336.7,543.8,336.7,543.8,334.2,547z"/>
	<path class="st0" d="M331.2,1111.5l-7.9,0.4l-0.2-1.8l7.9-1L331.2,1111.5z"/>
	<path class="st0" d="M398.5,235.7v7.2l-1.4,0.1l-1-7.3L398.5,235.7z"/>
	<path class="st0" d="M534.3,1066.3v7.2l-1.4,0.1c-0.3-2.4-0.7-4.8-1-7.2L534.3,1066.3z"/>
	<path class="st0" d="M361.5,549.7v-7.2l1.4-0.1l1,7.1L361.5,549.7z"/>
	<ellipse class="st0" cx="302.6" cy="1121.5" rx="1" ry="5.8"/>
	<path class="st0" d="M312.6,1128.3c-0.1-2.6-0.2-5.3-0.4-7.9l1.8-0.2l1,8L312.6,1128.3z"/>
	<path class="st0" d="M421.2,123.4v-7.2l1.4-0.1c0.3,2.4,0.7,4.8,1,7.2L421.2,123.4z"/>
	<path class="st0" d="M369.6,120.7v-7.2l1.4-0.1l1,7.3L369.6,120.7z"/>
	<path class="st0" d="M430.5,1122.6c0.7,2,1.4,4,2,5.6C429.6,1129.8,429,1127.4,430.5,1122.6z"/>
	<path class="st0" d="M450.1,1123.4v7.2l-1.4,0.1c-0.3-2.4-0.7-4.8-1-7.3L450.1,1123.4z"/>
	<ellipse class="st0" cx="454.7" cy="1126.9" rx="1" ry="5.8"/>
	<path class="st0" d="M461.9,1130.5v-7.2l1.4-0.1l1,7.3L461.9,1130.5z"/>
	<path class="st0" d="M315.2,1128.6h7.6C318.4,1131.2,318.4,1131.2,315.2,1128.6z"/>
	<ellipse class="st0" cx="397.6" cy="103.5" rx="1" ry="5.8"/>
	<path class="st0" d="M375.1,546.1l-1.5,3.6c-0.7-0.7-1.3-1.5-1.7-2.3c-0.2-0.6,0.5-1.5,0.8-2.2L375.1,546.1z"/>
	<ellipse class="st0" cx="462.8" cy="764.5" rx="1" ry="3.8"/>
	<path class="st0" d="M306.6,542c-0.4,2.1,1.4,5.2-2.7,5.4C304.4,545.3,302.6,542.2,306.6,542z"/>
	<ellipse class="st0" cx="503.5" cy="802.5" rx="1" ry="3.8"/>
	<ellipse class="st0" cx="381.3" cy="542" rx="1" ry="3.8"/>
	<path class="st0" d="M303.4,569c-1-0.6-2.1-1-2.1-1.3c0.2-1.2,0.4-2.4,0.8-3.5c0.6,0.3,1.7,0.7,1.7,1
		C303.8,566.4,303.7,567.7,303.4,569z"/>
	<ellipse class="st0" cx="416.6" cy="254.2" rx="1" ry="3.8"/>
	<path class="st0" d="M306.6,542c0.4-2.1-1.3-5.2,2.7-5.4C309,538.6,310.7,541.7,306.6,542z"/>
	<path class="st0" d="M455.5,873.2c0.3,1.3,0.4,2.6,0.5,3.9c0,0.4-1.1,0.7-1.7,1c-0.4-1.2-0.7-2.3-0.8-3.6
		C453.4,874.2,454.5,873.9,455.5,873.2z"/>
	<path class="st0" d="M477.7,536.5c-4.1-0.2-2.3-3.4-2.7-5.4C479.1,531.3,477.3,534.5,477.7,536.5z"/>
	<path class="st0" d="M312.1,531.1c-0.4,2.1,1.4,5.2-2.7,5.4v-5.4H312.1z"/>
	<path class="st0" d="M415.8,529.8l-1.5,3.6c-0.7-0.7-1.3-1.5-1.7-2.4c-0.2-0.6,0.5-1.5,0.8-2.2L415.8,529.8z"/>
	<path class="st0" d="M456.6,909.8l-1.5,3.6c-0.7-0.7-1.3-1.5-1.7-2.4c-0.2-0.6,0.5-1.5,0.8-2.2L456.6,909.8z"/>
	<path class="st0" d="M491.3,523c4.1,0.2,2.3,3.4,2.7,5.4C490,528.2,491.7,525,491.3,523z"/>
	<path class="st0" d="M338.8,529.5c0.9-3.3,1.4-4.9,1.9-6.6c0.5,1.2,0.9,2.5,1.2,3.8C341.9,527.1,340.9,527.7,338.8,529.5z"/>
	<path class="st0" d="M361.5,958.7l-1.5,3.6c-0.6-0.8-1.5-1.5-1.7-2.3c-0.2-0.6,0.5-1.5,0.8-2.2L361.5,958.7z"/>
	<path class="st0" d="M406.6,989.8c-1-0.6-2.1-1-2.1-1.3c0.2-1.2,0.4-2.4,0.8-3.5c0.6,0.3,1.7,0.7,1.7,1
		C407.1,987.2,406.9,988.5,406.6,989.8z"/>
	<path class="st0" d="M488.6,517.5c4.1,0.2,2.3,3.4,2.7,5.4C487.3,522.7,489,519.6,488.6,517.5z"/>
	<ellipse class="st0" cx="343.3" cy="1027.9" rx="1" ry="3.8"/>
	<path class="st0" d="M312.1,523c0.4-2.1-1.3-5.2,2.7-5.4C314.4,519.6,316.2,522.7,312.1,523z"/>
	<path class="st0" d="M295.3,1038.6c-1-0.6-2.1-1-2.1-1.3c0.2-1.2,0.4-2.4,0.8-3.6c0.6,0.3,1.7,0.7,1.7,1
		C295.7,1036,295.5,1037.3,295.3,1038.6z"/>
	<ellipse class="st0" cx="327" cy="1041.4" rx="1" ry="3.8"/>
	<ellipse class="st0" cx="451.9" cy="517.5" rx="1" ry="3.8"/>
	<path class="st0" d="M328.9,513.5c-1,3.4-1.5,5.1-1.9,6.7c-0.5-1.2-0.9-2.5-1.2-3.8C325.7,516,326.7,515.5,328.9,513.5z"/>
	<path class="st0" d="M298,1095.6c-1-0.6-2.1-1-2.1-1.3c0.2-1.2,0.4-2.4,0.8-3.6c0.6,0.3,1.7,0.7,1.7,1
		C298.4,1093,298.3,1094.3,298,1095.6z"/>
	<ellipse class="st0" cx="446.5" cy="123.9" rx="1" ry="3.8"/>
	<path class="st0" d="M338,1092.4l3.6,1.5c-0.7,0.7-1.5,1.3-2.4,1.7c-0.6,0.2-1.5-0.5-2.2-0.8C337.4,1093.8,337.8,1092.9,338,1092.4
		z"/>
	<path class="st0" d="M368.6,129.2c-1-0.6-2.1-1-2.1-1.3c0.2-1.2,0.5-2.4,0.8-3.6c0.6,0.3,1.7,0.7,1.7,1
		C369,126.6,368.9,127.9,368.6,129.2z"/>
	<ellipse class="st0" cx="409.9" cy="128" rx="3.8" ry="1"/>
	<path class="st0" d="M329.8,1099l-1-2.3c0.7-0.3,1.6-1,2.2-0.8c0.9,0.4,1.7,1,2.4,1.7L329.8,1099z"/>
	<path class="st0" d="M420.6,128.8c-1.3,0.3-2.6,0.4-3.9,0.5c-0.4,0-0.7-1.1-1-1.7c1.2-0.4,2.3-0.7,3.5-0.8
		C419.6,126.7,420,127.8,420.6,128.8z"/>
	<path class="st0" d="M320.2,1099.1l5.2-0.4l0.2,1.8l-5.3,1L320.2,1099.1z"/>
	<path class="st0" d="M314.8,1103.9c0.2-4.1,3.4-2.3,5.4-2.7v2.7H314.8z"/>
	<ellipse class="st0" cx="331.1" cy="1102.5" rx="3.8" ry="1"/>
	<path class="st0" d="M399.6,149.6l-2.3,1c-0.3-0.8-1-1.6-0.8-2.2c0.2-0.9,1.1-1.6,1.7-2.4L399.6,149.6z"/>
	<path class="st0" d="M444.6,243.3l0.4,5.2l-1.8,0.2c-0.4-1.8-0.7-3.5-1-5.3L444.6,243.3z"/>
	<path class="st0" d="M314.8,1103.9c-0.2,4.1-3.4,2.3-5.4,2.7C309.6,1102.5,312.8,1104.3,314.8,1103.9z"/>
	<path class="st0" d="M320.3,1106.6v-2.7c0.9-0.1,1.8-0.1,2.6,0.1c0.9,0.5,1.6,1.1,2.3,1.8c-0.7,0.4-1.5,0.6-2.3,0.8
		C322,1106.6,321.1,1106.7,320.3,1106.6z"/>
	<ellipse class="st0" cx="367.8" cy="1106.6" rx="1" ry="3.8"/>
	<path class="st0" d="M331,1107.2l5.2-0.4l0.2,1.8l-5.3,1L331,1107.2z"/>
	<ellipse class="st0" cx="435.7" cy="419.8" rx="1" ry="3.8"/>
	<path class="st0" d="M358.8,456.5l-1.5,3.6c-0.6-0.8-1.5-1.5-1.7-2.4c-0.2-0.6,0.5-1.5,0.8-2.2L358.8,456.5z"/>
	<path class="st0" d="M462.6,482.6l-6.6-1.9c1.2-0.5,2.5-0.9,3.8-1.2C460.2,479.5,460.8,480.6,462.6,482.6z"/>
	<path class="st0" d="M471.9,505.1c0.9-3.3,1.4-4.9,1.9-6.6c0.5,1.2,0.9,2.5,1.2,3.8C475,502.7,474,503.2,471.9,505.1z"/>
	<path class="st0" d="M298,566.3c-1-0.6-2.1-1-2.1-1.3c0.2-1.2,0.5-2.4,0.8-3.6c0.6,0.3,1.7,0.7,1.7,1
		C298.4,563.7,298.3,565,298,566.3z"/>
	<path class="st0" d="M355,512c-1-0.6-2.1-1-2.1-1.3c0.2-1.2,0.4-2.4,0.8-3.5c0.6,0.3,1.7,0.6,1.7,1
		C355.4,509.4,355.3,510.7,355,512z"/>
	<path class="st0" d="M325.1,617.8c-1-0.6-2.1-1-2.1-1.3c0.2-1.2,0.4-2.4,0.8-3.5c0.6,0.3,1.7,0.7,1.7,1
		C325.6,615.3,325.4,616.6,325.1,617.8z"/>
	<path class="st0" d="M298.1,559.4c0.9-3.3,1.4-5,1.9-6.6c0.5,1.2,0.9,2.5,1.2,3.8C301.2,557,300.2,557.5,298.1,559.4z"/>
	<path class="st0" d="M483.8,555.6l-0.5-5.2l1.8-0.2c0.4,1.8,0.7,3.5,1,5.3L483.8,555.6z"/>
	<path class="st0" d="M467.5,555.6l-0.4-5.2l1.8-0.2c0.4,1.8,0.7,3.5,1,5.3L467.5,555.6z"/>
	<ellipse class="st0" cx="351.5" cy="694" rx="1" ry="3.8"/>
	<path class="st0" d="M441.9,1125.7c0.3,1.3,0.4,2.6,0.5,3.9c0,0.4-1.1,0.7-1.7,1c-0.4-1.2-0.7-2.4-0.8-3.6
		C439.8,1126.7,440.9,1126.3,441.9,1125.7z"/>
	<ellipse class="st0" cx="356.9" cy="702.1" rx="1" ry="3.8"/>
	<path class="st0" d="M304,547.4c-0.4,2.1,1.4,5.2-2.7,5.4C301.6,550.8,299.9,547.6,304,547.4z"/>
	<path class="st0" d="M425.2,1030.2l-1.8-1c0.3-0.3,0.7-0.9,0.9-0.8c0.6,0.2,1.3,0.5,1.8,0.8L425.2,1030.2z"/>
	<path class="st0" d="M365.4,327.9l1,1c-0.6,0.4-1.2,0.6-1.8,0.9c-0.2,0-0.6-0.5-0.9-0.9L365.4,327.9z"/>
	<path class="st0" d="M473.8,531.1c-0.4-0.5-0.8-1.1-1.2-1.6c0.6-0.2,1.5-0.6,1.6-0.5c0.4,0.6,0.6,1.3,0.8,2.1H473.8z"/>
	<path class="st0" d="M396.3,543.3c-0.6,0.4-1.2,0.6-1.8,0.8c-0.2,0-0.6-0.5-0.9-0.8c0.6-0.4,1.2-0.6,1.8-0.8
		C395.6,542.4,396,543,396.3,543.3z"/>
	<path class="st0" d="M366,310.2l-1,1c-0.4-0.6-0.6-1.2-0.9-1.8c0-0.2,0.5-0.6,0.9-0.9L366,310.2z"/>
	<path class="st0" d="M333.8,548.6l-1.6,1.2c-0.2-0.6-0.6-1.5-0.5-1.6c0.6-0.4,1.3-0.6,2.1-0.8V548.6z"/>
	<path class="st0" d="M313.7,528.6c0.3,0.3,0.9,0.8,0.8,0.9c-0.4,0.6-0.8,1.1-1.2,1.6l-1.2-1.2L313.7,528.6z"/>
	<path class="st0" d="M455.1,917l1,1c-0.6,0.4-1.2,0.6-1.8,0.8c-0.2,0-0.6-0.5-0.9-0.8L455.1,917z"/>
	<path class="st0" d="M372.2,217.2l1-1c0.4,0.6,0.6,1.2,0.9,1.8c0,0.2-0.5,0.6-0.9,0.9L372.2,217.2z"/>
	<path class="st0" d="M487.4,517.5c-0.4-0.5-0.8-1.1-1.2-1.6c0.6-0.2,1.5-0.6,1.6-0.5c0.4,0.6,0.6,1.3,0.8,2.1H487.4z"/>
	<path class="st0" d="M443.4,517.1l-1-1c0.6-0.4,1.2-0.6,1.8-0.8c0.2,0,0.6,0.5,0.9,0.8L443.4,517.1z"/>
	<path class="st0" d="M496.4,925.7l-1,1.8c-0.3-0.3-0.9-0.7-0.9-0.9c0.2-0.6,0.5-1.2,0.9-1.8L496.4,925.7z"/>
	<path class="st0" d="M463.2,786.7l1,1c-0.6,0.4-1.2,0.6-1.8,0.8c-0.2,0-0.6-0.5-0.9-0.8L463.2,786.7z"/>
	<path class="st0" d="M373.6,203l1,1c-0.6,0.4-1.2,0.6-1.8,0.9c-0.2,0-0.6-0.6-0.9-0.9L373.6,203z"/>
	<path class="st0" d="M432,190.8c0.3-0.6,0.6-1.2,1-1.8c0.3,0.3,0.9,0.7,0.8,0.9c-0.2,0.6-0.5,1.3-0.8,1.8L432,190.8z"/>
	<path class="st0" d="M292.1,1070.9l-1.8-1c0.3-0.3,0.7-0.9,0.9-0.8c0.6,0.2,1.3,0.5,1.8,0.8L292.1,1070.9z"/>
	<path class="st0" d="M424.4,169.7l-1-1c0.6-0.3,1.2-0.6,1.8-0.9c0.2-0.1,0.6,0.6,0.9,0.9L424.4,169.7z"/>
	<path class="st0" d="M351.9,563.3l-1.8-1c0.3-0.3,0.7-0.9,0.9-0.8c0.6,0.2,1.2,0.5,1.8,0.8L351.9,563.3z"/>
	<path class="st0" d="M406.2,118.9l1,1c-0.6,0.4-1.2,0.6-1.8,0.8c-0.2,0-0.6-0.6-0.9-0.8L406.2,118.9z"/>
	<path class="st0" d="M398,118.9l1,1c-0.6,0.4-1.2,0.6-1.8,0.8c-0.2,0-0.6-0.6-0.9-0.8L398,118.9z"/>
	<path class="st0" d="M320.6,526.6l1-1c0.3,0.6,0.6,1.2,0.9,1.8c0,0.2-0.5,0.6-0.9,0.9L320.6,526.6z"/>
	<path class="st0" d="M445.2,95.4c-0.6,0.4-1.2,0.6-1.8,0.8c-0.2,0-0.6-0.6-0.9-0.8c0.6-0.4,1.2-0.6,1.8-0.8
		C444.5,94.5,444.9,95.1,445.2,95.4z"/>
	<path class="st0" d="M415.7,948.2l1-1.8c0.3,0.3,0.9,0.7,0.9,0.9c-0.2,0.6-0.5,1.3-0.9,1.8L415.7,948.2z"/>
	<path class="st0" d="M526.2,1096.7l-1,1.8c-0.3-0.3-0.9-0.7-0.8-0.9c0.2-0.6,0.5-1.3,0.8-1.8L526.2,1096.7z"/>
	<path class="st0" d="M416.3,955l1.8,1c-0.3,0.3-0.7,0.9-0.9,0.8c-0.6-0.2-1.2-0.5-1.8-0.8L416.3,955z"/>
	<path class="st0" d="M352.8,524.3c-0.6,0.4-1.2,0.6-1.8,0.8c-0.2,0-0.6-0.5-0.9-0.8c0.6-0.4,1.2-0.6,1.8-0.8
		C352.2,523.4,352.5,524,352.8,524.3z"/>
	<path class="st0" d="M337.9,1098.4c0.4,0.6,0.6,1.2,0.9,1.8c0,0.2-0.5,0.6-0.9,0.9c-0.4-0.6-0.6-1.2-0.9-1.8
		C337,1099.1,337.6,1098.7,337.9,1098.4z"/>
	<path class="st0" d="M312.1,523l-2.7,2.7L312.1,523z"/>
	<path class="st0" d="M479.1,482.2c0.4,0.6,0.6,1.2,0.9,1.8c0,0.2-0.5,0.6-0.9,0.9c-0.4-0.6-0.6-1.2-0.9-1.8
		C478.2,482.9,478.8,482.5,479.1,482.2z"/>
	<path class="st0" d="M466.5,858.6l-1,1c-0.4-0.6-0.6-1.2-0.9-1.8c0-0.2,0.5-0.6,0.9-0.9L466.5,858.6z"/>
	<path class="st0" d="M480.2,538.1c-0.3,0.3-0.8,0.9-0.9,0.8c-0.6-0.4-1.1-0.8-1.6-1.2l1.2-1.2L480.2,538.1z"/>
	<path class="st0" d="M373.2,479.5c0.4,0.6,0.6,1.2,0.9,1.8c0,0.2-0.5,0.6-0.9,0.9c-0.4-0.6-0.6-1.2-0.9-1.8
		C372.3,480.2,372.9,479.8,373.2,479.5z"/>
	<path class="st0" d="M309.4,1107.8l-1.6,1.2c-0.2-0.6-0.6-1.5-0.5-1.6c0.6-0.4,1.3-0.7,2.1-0.8V1107.8z"/>
	<path class="st0" d="M320.3,1107.8l-1.6,1.2c-0.2-0.6-0.6-1.5-0.4-1.6c0.6-0.4,1.3-0.7,2.1-0.8V1107.8z"/>
	<path class="st0" d="M343.6,520.5c0.3,0.3,0.9,0.8,0.8,0.9c-0.4,0.6-0.8,1.1-1.2,1.6l-1.2-1.2L343.6,520.5z"/>
	<path class="st0" d="M325.7,521.4l-1.6,1.3c-0.2-0.6-0.6-1.5-0.5-1.7c0.6-0.4,1.3-0.6,2.1-0.8V521.4z"/>
	<path class="st0" d="M287.5,1119c-0.3,0.3-0.8,0.9-0.9,0.8c-0.6-0.4-1.1-0.8-1.6-1.2l1.2-1.2L287.5,1119z"/>
	<path class="st0" d="M338.9,532.8l-1,1c-0.4-0.6-0.6-1.2-0.9-1.8c0-0.2,0.5-0.6,0.9-0.9L338.9,532.8z"/>
	<path class="st0" d="M346.4,1119.8l-1.8-1c0.3-0.3,0.7-0.9,0.9-0.8c0.6,0.2,1.2,0.5,1.8,0.8L346.4,1119.8z"/>
	<path class="st0" d="M455.1,998.4l1,1c-0.6,0.4-1.2,0.6-1.8,0.8c-0.2,0-0.6-0.5-0.9-0.8L455.1,998.4z"/>
	<path class="st0" d="M507.6,1004.8c-0.6,0.3-1.2,0.6-1.8,0.8c-0.2,0-0.6-0.5-0.9-0.8c0.6-0.4,1.2-0.6,1.8-0.8
		C506.9,1003.9,507.3,1004.5,507.6,1004.8z"/>
	<path class="st0" d="M308.4,1126l1,1c-0.6,0.4-1.2,0.6-1.8,0.8c-0.2,0-0.6-0.5-0.9-0.8L308.4,1126z"/>
	<path class="st0" d="M392.6,405.8l-1.8-1c0.3-0.3,0.7-0.9,0.9-0.9c0.6,0.2,1.2,0.5,1.8,0.9L392.6,405.8z"/>
	<path class="st0" d="M485,83.8l-10.6-4.9c1.3-2.7,2.5-4.9,3.1-6.2c0.1-6-9.3-3.7-7.5-11.5c4.8,1.4,10.2,2.2,11.9,6.4
		C483.8,72.1,487.4,77.1,485,83.8z"/>
	<path class="st0" d="M463.7,61.5h-39.8c6.4-3.6,13.2-2.5,19.9-2.7s13.3,0,19.9,0L463.7,61.5z"/>
	<path class="st0" d="M412.6,64.4c0,1.7-0.5,3.5,0.1,4.9c1.2,2.5,1.1,8.6,6.4,3.3l5.3,5.4C411.2,82.8,409.5,81.1,412.6,64.4z"/>
	<path class="st0" d="M470,82.5c-3.9-4.1-8.9-8.5-4.8-15.4C474.1,75.6,474.1,75.6,470,82.5z"/>
	<path class="st0" d="M368.4,66.9c-1,5.3-2,10.7-2.9,16c-4.1,1.2-4.4-1-4.6-4.1c-0.3-4.7,2.5-8,4.3-11.8
		C365.5,66.4,367.8,66.9,368.4,66.9z"/>
	<path class="st0" d="M442,80.9c-10.2-2.8-10.1-2.8-9.4-11.4C438.8,69.9,438,75.6,442,80.9z"/>
	<path class="st0" d="M445.4,77.3V66.7c1.3,1.1,2.4,1.6,2.4,2.1c-0.1,3,1.4,3.3,3.9,3.8c1.6,0.2,2.9,2.5,5.3,4.8H445.4z"/>
	<path class="st0" d="M391.5,65.2c2,5.2,3.7,8.5,4.5,12c0.2,1-2,2.6-4.5,5.6V65.2z"/>
	<path class="st0" d="M400.8,64.5c0.8,4,1.6,8,2.6,12.8c-1.4,1.2-3.8,1.9-4.3-2.2c-0.5-3.4-0.1-6.9-0.1-10.4L400.8,64.5z"/>
	<path class="st0" d="M428.4,64.7v15.8C425.3,73.2,426.5,68.9,428.4,64.7z"/>
	<path class="st0" d="M369.1,66.9l1.8-2.3c0.3,0.8,0.6,1.5,0.9,2.3H369.1z"/>
</g>
</svg>
