<?xml version="1.0" encoding="utf-8"?>
<!-- Generator: Adobe Illustrator 25.2.0, SVG Export Plug-In . SVG Version: 6.00 Build 0)  -->
<svg version="1.1" id="Layer_1" xmlns="http://www.w3.org/2000/svg" xmlns:xlink="http://www.w3.org/1999/xlink" x="0px" y="0px"
	 viewBox="0 0 399.2 427.2" style="enable-background:new 0 0 399.2 427.2;" xml:space="preserve">
<path d="M75.4,315c-3.5,0.2-6.2,0.5-8.8,0.5c-2.8,0-3.5-1.2-2.6-3.8c0.2-0.5,0.4-0.9,0.6-1.4c3.6-5.9,4.2-12.5,4.9-19.2
	c1.1-10.6,1.6-21.3,5.2-31.4c1.8-5,3.5-10.1,7.2-14.1c1.1-1.2,0.7-2-0.6-2.7c-2.4-1.1-4.8-2.2-7.2-3.4c-0.7-0.4-1.9-0.7-2-1.3
	c-1-4.5-4.6-3.3-7.2-2.8c-4.6,0.8-8.9,0.3-13.3-0.9c-8-2-14.8-5.9-19.7-12.7c-0.6-0.8-1.8-1.4-2.8-1.6c-2.6-0.7-5.2-1.1-7.8-1.7
	c-2-0.6-2.3-1.7-0.9-3.2c1-1.1,2.4-1.9,3.1-3.2c0.7-1.2,1.4-2.9,1-4.1c-1.4-5.3-1.5-10.5-0.9-15.9c0.3-2.7-0.1-2.9-2.7-2.4
	c-2.1,0.4-4.2,1-6.4,1.3c-0.5,0.1-1.4-0.3-1.6-0.7c-0.3-0.5-0.2-1.3,0.1-1.8c0.3-0.6,0.9-1,1.4-1.4c5.5-5,9.6-11.1,13-17.6
	c3.9-7.4,7.9-14.7,14.3-20.3c0.6-0.6,0.8-0.9-0.2-1.8c-3.1-2.7-3-4,0.4-5.8c5.7-3.2,10-7.6,13.5-13.1c2.2-3.5,5-6.6,7.8-9.7
	c5.9-6.6,13.5-10.1,22.2-11.3c0.8-0.1,1.5-0.5,2.2-0.8c-0.5-0.8-0.8-1.7-1.4-2.3c-1.5-1.3-3.2-2.4-4.6-3.8c-1.2-1.2-0.6-2.8,1-2.8
	c9.6-0.3,17.9-4.8,26.7-7.7c4.4-1.5,8.8-3.1,13.2-4.5c7.9-2.5,16-2.6,24.2-1.2c9.4,1.6,18.6,3.5,27.4,7.4c4.7,2.1,8.7,5,10.9,9.8
	c0.8,1.7,1.8,2.7,3.7,2.7c4.6,0,8.4,2.1,11.9,4.6c2.6,1.8,5,2.2,8,1.4c4-1.1,8-2.2,12.1-3c17.4-3.6,33.4-11.2,49.5-18.4
	c3.3-1.5,6.7-3,9.9-4.7c3.4-1.8,3.5-2.7,0.5-5.3c-3.2-2.9-6.5-5.7-10-8.3c-9.6-7.5-17.1-16.7-23.4-27.1c-4.6-7.5-9.4-14.9-14.2-22.3
	c-2.3-3.6-1.2-7.8,2.8-9.3c0.9-0.3,2.4,0,3.1,0.6c2,2,3.8,4.2,5.6,6.4c14.3,17.9,27.6,36.8,44.9,52.2c12.7,11.2,27,19.4,43.3,24
	c5.6,1.6,11.2,3.4,16.8,4.8c4.3,1.1,8.8,1.8,13.2,2.7c0.8,0.2,1.7,0.2,2.4,0.6c2,0.9,3,2.8,2.6,4.9c-0.4,2.1-1.9,3.2-4.3,3.2
	c-12.3,0.1-24.2-1.6-35.8-5.8c-9.1-3.3-18.1-6.7-27.2-10.1c-8.2-3.1-8.6-2.9-12.3,5.1c-6.4,14.2-9.4,29.1-9.3,44.6
	c0,0.8,0,1.7,0.1,2.5c0.2,2.4,0.4,4.9,0.6,7.3c3.4,1.3,6.7,2.9,10.2,3.9c1.2,0.3,2.8-0.6,4.2-1.1c13.8-4.4,27.5-4.4,41.1,0.6
	c11.6,4.3,20.8,11.7,28.9,20.8c6.5,7.4,12.9,14.9,21.4,20.1c0.6,0.4,1.3,1.4,1.2,1.9c-0.3,0.8-1.1,1.6-1.9,2
	c-0.7,0.4-1.6,0.4-2.4,0.3c-7.9-1-15.5,1.3-23.2,2.2c0,0.6-0.1,1,0,1.2c6.6,6.6,10.9,14.6,14.3,23.2c1.5,3.9,3.5,7.5,5.4,11.3
	c1.4,2.8,1.3,3.4-1.6,4.4c-2.7,0.9-5.5,1.5-8.2,2.1c-1.1,0.3-2.3,0.3-3.5,0.5c-1.5,0.3-2.5,1-1.5,2.7c5.5,8.8,5.8,18.5,5.2,28.5
	c-0.3,5.6-0.3,11.3-0.2,16.9c0.1,2.2-0.8,2.6-2.5,2.7c-0.5,0-1,0-1.5,0.1c-5.5,0-5.7,0-5.6,5.3c0.2,9.3-3.1,17.6-7.1,25.7
	c-1.8,3.7-3.8,7.4-5.5,11.2c-0.9,2.1-2.1,3-4.2,1.9c-3.4-1.8-6-0.8-8.1,2.2c-0.5,0.7-1.1,1.2-1.8,1.8c-4.8,4.2-9.3,8.6-11.4,15.7
	c-2-3.1-4.4-4.1-7-5c-8.1-3.1-16.6-5-23.8-10.1c-1.7-1.2-4.2-1.1-6-2.2c-7-4.2-13.9-8.5-20.6-13.1c-4.3-3-7-7.6-9.3-12.3
	c-0.7-1.4-1.3-2.8-2.9-0.6c-0.2,0.2-1.5-0.4-2.3-0.6c-5.6-0.9-10.2-3.9-14.8-7c-2.3-1.5-2.9-1.3-3,1.5c-0.2,8.1-1.8,15.8-4.3,23.5
	c-2.8,8.4-7.6,15.5-12.2,22.9c-3.5,5.6-7.5,11-11.2,16.5c-1.9,2.8-2.7,2.9-4.8,0.3c-1.7-2.2-3.2-4.7-4.8-7c-0.9-1.3-2-2.5-3.1-3.8
	c-0.5,0.6-0.9,0.8-0.9,1.1c-2.3,11.4-9.6,19.1-18.3,25.9c-2,1.5-4,3.1-5.9,4.6c-2.5,1.9-3.1,1.6-3.7-1.6c-0.5-2.6-1-5.2-2.2-7.6
	c-1.6-3.2-2.8-3.3-5.2-0.8c-4.2,4.3-9.8,5.7-15.1,7.3c-4.7,1.5-9.7,2.1-14.6,3.1c-0.6,0.1-1.4,0.2-2,0.1c-1.5-0.4-3-1.1-4.5-1.6
	c0.5-1.3,1-2.7,1.5-4c0.2-0.6,0.6-1.1,1.3-2.3c-4.3,1.8-7.4,3.7-9.9,6.7c-1.9,2.3-2.5,2.2-4.2,0c-1.5-2-2.6-4.2-3.9-6.4
	c-1-1.7-1.7-1.8-2.7-0.1c-0.7,1.1-1.1,2.4-1.6,3.6c-1.4,3.3-2.2,3.7-4.4,1.2c-5.3-6-10-12.5-10.8-20.9c-0.2-2.6-0.3-5.3-0.4-8
	c-0.1-2.9-0.3-3.2-3.2-2.3c-2,0.7-3.9,1.8-5.9,2.6c-0.8,0.3-2,0.4-2.8,0.1c-0.4-0.1-0.6-1.6-0.4-2.2c3.3-8.1,1.9-16.4,0.9-24.7
	C71.8,331.2,72.5,323.3,75.4,315z M96.6,201.4c-4.8-0.1-9.1,1.5-13.2,3.8c-4.7,2.6-8.5,6.4-11.9,10.5c-3.5,4.1-7.4,7.6-12.3,10
	c-0.9,0.5-1.6,1.3-2.7,2.1c5.7,2.7,10.6,5.1,16.8,2.5c3.8-1.6,5.9-3.6,7.7-7.8c-3.4,1.1-6,2-8.7,2.9c4.1-2.8,8.4-4.9,12.3-7.7
	c4.8-3.5,7.7-7.6,9.1-11.1c-3.3,2.3-6.5,4.7-9.9,6.8c-3.2,2.1-6.4,4.4-10.6,4c1.6-1.2,3.3-2.1,5.1-2.8
	C85.5,211.8,90.9,206.5,96.6,201.4c0.4-0.2,0.8-0.2,1.3-0.3c-0.1-0.2-0.2-0.3-0.3-0.5C97.2,200.9,96.9,201.2,96.6,201.4z
	 M159.6,347.4c-5.4,5.2-8.4,11.2-5.5,18.7c2.2,5.5,5.1,10.8,7.6,16.2c1.3,2.7,2.5,5.4,3.6,8.2c0.9,2.4,1.2,2.8,3.3,1.2
	c5.6-3.9,10.9-8.3,14.3-14.4c1.9-3.5,3-7.4,4.3-11.1c0.7-1.9,0.1-3.6-1.7-4.7c-1.6-1-3.1-2.2-4.7-3.3c-1.6,3.4-0.7,7-3.6,10.1
	c0.3-3.4,0.4-6.1,0.8-8.7c0.8-4.5-1.3-7.4-5.1-10.8c-0.2,4.8-0.1,8.8-0.6,12.7c-0.6,5.4-1.6,10.8-2.5,16.2c-0.1,0.6-0.9,1.1-1.4,1.6
	c-0.2-0.6-0.5-1.2-0.5-1.7c0.6-11.6,1.3-23.2,1.9-34.9c0-0.7-0.4-1.4-0.8-3c-3.1,9-3.2,17.5-5.3,25.7c-0.6-10.3,0.8-20.5,3-30.6
	c-2.5,4.3-5,8.6-7.5,12.8L159.6,347.4z M208.6,113.5c-4.5-0.4-8.8-1.1-12.7-3.6c-2.1-1.4-4.9-2.2-7.5-2.5c-7.5-0.8-15,0.2-22.2,2.4
	c-10.9,3.4-19.9,9.6-27,18.8c-7.2,9.3-14.8,18.4-25,24.8c-0.2,0.1-0.1,0.5-0.2,0.9c12.5,5.4,25.6,7.8,39.2,8.1c1.3,0,2.7-0.1,4-0.4
	c6.7-1.5,13.4-2.7,19.9-4.6c6.8-2,13.1-5.4,17.5-11c4.9-6.3,8.6-13.5,10.4-21.4c0.3-1.6,0.1-3.3,0.1-4.9c-0.1-1.5-0.9-1.8-2.4-1.6
	c-11.5,2.1-22,6.1-31.2,13.5c-7.8,6.3-16.7,10.9-26.1,14.4c-0.8,0.3-1.6,0.3-2.5,0.5c0.8-1.4,1.8-2.1,2.9-2.7
	c9.8-5,19.4-10.3,28.1-17.2c6.8-5.4,14.5-8.6,23-10.1c4-0.7,7.8-2.5,11.6-3.7c7.8-1.7,15.5-3.4,23.3-5.1c3-0.7,5.7-2.7,9.1-1.3
	c0.7,0.3,2.2-0.3,2.7-0.9c2.2-2.9,5.5-3.5,8.6-4.7c3.3-1.2,6.5-2.6,9.6-4.1c4.2-2,8.4-4.1,12.6-6.1c0.4-0.2,1.1,0.3,1.6,0.4
	c-0.2,0.4-0.2,1.1-0.5,1.2c-1.8,0.9-1.7,1.5,0.1,2.2c0.3,0.1,0.4,1.6,0.2,2.2c-0.6,1.5-1.4,3-2.4,4.4c-5.1,7-10.3,13.9-15.4,20.9
	c-4,5.5-8.2,10.9-11.8,16.8c-9.4,15.3-18.7,30.7-30,44.7c-0.8,1-1.5,2-2.3,3.2c2,1.5,3.6,2.7,5.2,3.9c2.9-5,5.5-9.6,8.1-14.1
	c1.4-2.4,3.4-4.6,4.4-7.2c1.3-3.3,3.6-5.6,6.2-7.5c2.8-2.1,4.6-4.9,5.5-8c0.6-2,1.2-3.6,2.9-5c1.5-1.3,2.8-2.8,1.7-5.2
	c-0.3-0.6,0.1-2.2,0.7-2.6c2.7-1.8,4.2-4.3,4.6-7.4c0-0.3,0.3-0.6,0.5-0.8c3.6-5,7.4-9.9,10.7-15c1.7-2.7,4.8-3.5,6.7-5.7
	c5.8-6.8,11.7-13.7,17.3-20.6c2.9-3.6,2.7-3.7,6.8-1.9c0.3,0.1,0.6,0.2,0.9,0.3c10.3,3.7,20.7,7.4,31,11.2
	c9.8,3.6,19.9,5.5,30.2,6.5c0.8,0.1,1.9,0.2,2.4-0.2c0.5-0.5,0.5-1.6,0.3-2.4c-0.1-0.3-1.1-0.6-1.8-0.6c-7.3-0.8-14.3-3.2-21.4-4.9
	c-12.2-2.9-23.2-8.3-34-14.3c-8.7-4.8-16-11.3-22.9-18.4c-14.3-14.8-26.9-30.9-38.8-47.6c-1-1.4-1.9-2.7-3.1-3.9
	c-0.4-0.4-1.8-0.6-2-0.2c-0.5,0.6-0.7,1.6-0.8,2.4c0,0.4,0.5,0.8,0.8,1.2c4.8,7.8,9.4,15.7,14.5,23.3c5.9,8.9,12.3,17.3,20.9,24
	c5.8,4.6,12,8.9,16.1,15.7c-0.8,0.6-1.5,1.2-2.3,1.7c-5.1,2.7-10.2,5.6-15.5,8c-15.8,7.1-31.4,14.5-48.6,17.9
	c-2.9,0.6-5.8,1.3-8.7,2.2C211.1,112.1,209.9,112.9,208.6,113.5z M223.6,219.3c-0.8-9.7-1.8-18.2-7.4-25.5c-1.4-1.8-2.9-3-5-3.8
	c-6.7-2.4-13.5-2.7-20.6-1.8c-11.3,1.4-20.5,6.7-28.5,14.3c-1.8,1.7-3.3,3.9-4.2,6.1c-2.9,7.4-6.1,14.8-7.9,22.5
	c-2.1,9-3.1,18.4-4,27.6c-0.9,9.3-1.2,18.6-1.8,27.9c-0.1,1.8,0.6,2.1,2,1.8c3.3-0.6,6.5-1.4,9.8-2.1c8.8-1.7,17.7-3.3,26.5-5.1
	c4.6-0.9,8.9-2.8,12.7-5.5c9.7-6.9,17.3-15.6,21.5-26.9c1.9-5.1,3.7-10.4,5-15.7C222.5,228.3,223,223.3,223.6,219.3z M277.7,114.3
	c-0.4-0.1-0.8-0.2-1.1-0.3c-0.8,2.4-1.9,4.8-2.3,7.3c-1.3,10.1-1.5,20.3-0.6,30.4c0.3,3.7-0.8,6.5-2.8,9.2c-1,1.3-2,2.7-3.1,3.9
	c-5.8,6.5-9.4,14.1-10.7,22.7c-2,13.2,0.6,25.4,9.7,35.4c7,7.8,15.4,14.2,25.2,18.4c5.5,2.4,11,4.7,16.5,7c2.5,1.1,3.1,0.7,3.8-2
	c0.7-3.1,1.1-6.3,2.1-9.2c6.2-17.3,5.8-34.2-2.2-50.9c-2.3-4.7-5-8.9-8.9-12.6c-6.3-6-13.1-11.3-21.6-13.9c-3.9-1.1-6-3.7-6-7.6
	c0-8.1,0.1-16.3,0.5-24.4C276.4,123.3,277.2,118.8,277.7,114.3z M227.9,224.1c-0.5,0-0.9,0-1.4,0c-0.4,3.1-1.2,6.2-1.2,9.3
	c-0.1,10.2,0.3,20.3,1.8,30.4c0.1,0.5,0.1,1,0,1.5c0,0.3-0.3,0.6-0.6,0.7c-0.2,0.1-0.7-0.1-0.8-0.3c-0.6-2.7-1.5-5.5-1.7-8.2
	c-0.4-5.4-0.4-10.8-0.5-16.2c-0.4-0.1-0.8-0.1-1.2-0.2c-1.2,3.9-3,7.7-3.5,11.7c-1,7.6-0.1,15.3,1.3,22.8c0.4,2,0.3,4.1,0.4,6.1
	c-0.3,0-0.7,0.1-1,0.1c-1.1-8.1-2.2-16.2-3.4-24.6c-2,2.8-3.5,5.5-5.6,7.8c-2.4,2.7-2.9,5.7-1.7,8.8c3.4,8.7,7.5,17.3,14,24
	c6.4,6.6,14.4,11.3,22.7,15.3c3.1,1.5,3.1,1.3,3.8-2.3c0.5-2.8,1.2-5.5,2-8.2c5.1-17.3,6.6-34.9,5.3-52.9
	c-1.1-16.7-8.7-30.2-20.7-41.3c-2.9-2.7-6.4-4.4-11.3-5.2c0.9,3.5,1.2,6.4,2.3,8.9c4,9.2,6,18.9,7.2,28.9c1.3,11.4,3,22.8,4.6,34.1
	c0.9,6.6,2.1,13.1,3.1,19.7c0.1,0.7-0.3,1.6-0.6,3c-1.9-7.2-3.6-13.6-5.2-20c-0.8-3.2-1.8-6.4-2.2-9.7c-1.3-9.7-2.2-19.5-3.5-29.3
	C229.9,233.8,228.8,229,227.9,224.1z M180.1,187.4c-2.5-2.9-5.3-3.4-8-4.1c-7.1-1.7-14.3-1.2-21.4-0.8c-21.5,1.3-39.6,9.9-53.8,26.1
	c-7.1,8.1-13.3,17-20,25.5c-1.2,1.6-0.6,2.3,0.8,3.1c6.1,3.4,12.9,4.7,19.7,4.7c16.5-0.1,31.8-4.7,45.7-13.7
	c3.4-2.2,5.7-4.8,6.7-8.8c0.6-2.6,2-4.9,2.8-7.5c1.9-6,5.5-10.5,10.5-14.2c2.2-1.6,4.3-3.6,7.1-6c-5.4-0.2-9.4,1.5-13.4,2.8
	c-4.1,1.3-8.3,2.5-12.3,4.1c-4,1.6-8,3.4-11.8,5.4c-3.8,2-7.6,4.3-11,6.8c-3.4,2.4-6.4,5.4-9.5,8.1c0-1.6,0.5-2.6,1.2-3.4
	c4.3-5,9.2-9.1,15-12.3c10.9-5.9,22.5-10,34.4-13.4c3.8-1.1,7.9-1,11.8-1.5C176.1,188.2,177.8,187.8,180.1,187.4z M217.9,302.9
	c-0.2,10.5,0.5,21.1-4,31.3c-0.2-0.9-0.4-1.3-0.4-1.8c0.8-6.3,1.5-12.5,2.5-18.8c1.2-7.3,0.6-14.2-4.2-20.3c-1.1-1.4-1.9-3.1-3-4.6
	c-0.5-0.7-1.1-1.3-2.2-2.5c0.3,3.1,0.6,5.2,0.8,7.3c1.1,12.2-0.5,24.3-1.5,36.4c-0.3,3.1-1.4,6.2-2.2,9.2c-0.2,0.8-1,1.4-2.1,3
	c0.6-6.1,1-11,1.5-15.9c1.4-14,1.9-27.9,0.2-41.9c-0.2-1.5-0.5-3-0.8-4.4c-0.1-0.4-0.5-0.8-0.8-1.2c-0.5,0.3-1.3,0.6-1.4,1
	c-0.7,3.1-1.5,6.1-1.8,9.2c-0.4,3.3-0.1,6.7-0.4,10c-0.8,7.9-1.8,15.9-2.7,23.8c-0.3,2.7-0.7,5.4-1.3,9.2c-0.4-1.6-0.7-2.1-0.7-2.5
	c0.4-10.8,0.9-21.6,3.1-32.2c0.7-3.3,0.1-6.9,0.1-11.4c-4.6,6-7.2,11.6-8,18c-0.8,7.1-1.4,14.2-2.1,21.4c-0.2,1.9-0.5,3.8-0.8,5.7
	c-1.3-9.3-1.1-18.5,1-28.4c-1.2,1-1.7,1.3-2.1,1.8c-3.3,4.4-6.6,8.8-9.8,13.3c-0.7,1-1.1,2.4-1.1,3.7c0.1,11.7,3.1,22.4,11.4,31.1
	c5.4,5.7,10.7,11.5,14.8,18.2c1.3,2.1,1.7,2.1,3.1,0.1c2.8-3.9,5.3-8.1,8.4-11.8c7-8.3,11.7-17.9,14.4-28.2
	c1.5-5.4,1.6-11.2,2.2-16.8c0.2-1.4-0.3-2.9-1.9-2.9c-0.5,0-1.2,1.7-1.6,2.7c-0.9,2.5-1.6,5-2.3,7.4c-0.3-0.1-0.7-0.2-1-0.2
	c0.4-2.6,0.7-5.2,1.2-7.7C223.6,307.2,223.4,306.6,217.9,302.9z M144.2,241.6c-1.8,1.4-3.1,2.2-4.1,3.2c-6.7,7-11.7,14.9-14.5,24.2
	c-1.3,4.3-2.6,8.6-3.6,13c-2.3,9.3-3.8,18.8-2.1,28.2c1.6,9,4.4,17.7,6.7,26.6c0.5,1.8,1.3,2,2.9,1.3c5-2.2,10.1-4.3,15.1-6.5
	c8-3.5,15.3-8,21.9-13.8c9.2-8.1,15.2-18.5,20.9-29c0.5-0.9,0.8-2,1.3-3.2c-6.8-0.1-9.6,5.4-13.6,9c-0.2-0.2-0.4-0.5-0.6-0.7
	c0.9-1.4,1.9-2.9,3.1-4.7c-4.4,0.2-7.3,1.4-9.4,5.1c-2.6,4.4-5.9,8.4-9,12.6c-0.5,0.6-1.3,1-2.5,1.8c2.5-6.4,7.6-10.5,9.5-16.7
	c-6.1-0.2-10,2-12.3,7.6c-1.8,4.6-4.5,8.8-6.8,13.3c0.2-6.6,4.2-11.9,6.3-18c-5.4,1-5.3,1.1-7.7,4.7c-4.6,6.8-8.2,14.1-11.5,21.6
	c-0.6,1.3-1.3,2.5-2,3.8c-0.3-0.1-0.6-0.3-0.9-0.4c1.6-9.2,6-17.4,10.7-25.9c-6.7,1.1-6.7,1-5.2-4.9c0.5-2.1,1.1-4.2,1.6-6.3
	c0.6-2.8,1.2-5.5,1.7-8.3c-3.3,3.7-4.8,8.3-8.4,11.7c2.6-6.7,5.7-13.1,8.9-19.4c1.3-2.5,1.9-8.5,0.5-12.2
	c-3.4,6.9-6.6,13.4-9.8,19.9c-0.5-1.1-0.3-1.8-0.1-2.6c2.1-8,6-15.2,10.1-22.2C143.7,250.4,143.7,246.6,144.2,241.6z M85.6,258.2
	c-0.2-0.1-0.3-0.2-0.5-0.3c0.1-0.4,0.1-0.9,0.3-1.3c1.4-2.4,2.8-4.9,4.4-7.2c0.9-1.4,0.7-2-0.8-2.5c-3.2-1.1-5.1-0.3-6.9,3
	c-3.1,5.7-5.5,11.8-6.5,18.3c-1.2,8-2.1,16.2-2.7,24.3c-0.5,6.6-1.8,12.8-5.3,18.5c-0.1,0.2,0.1,0.6,0.2,1.4
	c2.2-0.2,4.5-0.4,6.8-0.7c2.3-0.4,4.5-1.2,6.8-1.6c10.8-1.6,20.3-6.3,29.2-12.2c3-2,5-4.5,6-8.2c2.2-8.9,4.1-17.8,7.8-26.3
	c1.2-2.8,2.5-5.7,3.7-8.5c-2.4,1.8-4.4,3.9-6.2,6.2c-4.1,5.3-8.1,10.6-12.1,15.9c-0.6,0.8-1.4,1.4-2.2,2.1c0-1.3,0.4-2.2,1-3
	c6.2-7.8,12.4-15.6,18.7-23.4c3-3.8,6.2-7.4,8.4-12.2c-4.2,0.9-6.8,2.9-9,5.8c-2.2,2.9-4.8,5.6-7.7,7.8c-6,4.4-10.5,10.2-14.6,16.2
	c-1.5,2.2-2.9,4.5-4.4,6.7c-0.4,0.6-1,1.1-1.6,1.7c-0.3-0.4-0.4-0.6-0.4-0.7c5.1-11,11.6-20.9,22.1-27.6c1.6-1,2.8-2.7,4.1-4.2
	c0.2-0.3,0.2-1,0-1.4c-0.2-0.3-1-0.4-1.3-0.3c-2.7,1.3-5.8,2.2-7.8,4.2c-9.5,9.2-18,19.2-23.6,31.3c-2.3,4.9-4.8,9.8-8.5,13.9
	c5.4-17.4,15-32.2,28.5-45.7c-2.2,0-3.3,0.1-4.4,0c-3.7-0.3-6.3,1.3-8.3,4.3c-2.8,4.1-5.9,8.1-8.8,12.1c-1.1,1.5-2.4,3-3.5,4.5
	c-0.4-2.6,0.9-4.2,2.1-5.9c2.9-4.3,5.8-8.6,8.7-12.8c1-1.4,0.4-2-1-2.5c-1.8-0.5-3.3-0.2-4.4,1.4c-1.3,1.9-2.6,3.9-3.9,5.8
	C87.1,256.3,86.4,257.3,85.6,258.2z M105.1,144.4c2.4-4.7,6.4-7.5,11-9.2c5-1.8,10.2-3,15.2-4.6c1.1-0.4,2-1.5,2.9-2.3
	c-1.1-0.6-2.1-1.5-3.2-1.7c-10.6-1.3-19.7,1.8-27.5,9c-6.5,5.9-10.9,13.4-15.1,21c-4.4,7.8-7.8,16.2-15.1,22.1c-1.3,1-0.9,2,0.7,2.3
	c1.3,0.3,2.6,0.3,4,0.4c3.8,0.2,7.7,0.2,11.4,0.7c7.4,0.9,14.8,2.3,22.3,2.9c12.9,1,24.3-2.8,34-11.5c1.5-1.4,3.5-2.6,3.5-5.1
	c-1.9-0.1-3.8-0.3-5.7-0.4c-3.8-0.2-7,0.8-10.1,3.3c-5.1,4.2-11.2,6.5-17.7,7.5c-0.6,0.1-1.3,0-2,0c3.2-2.1,6.6-3.2,9.9-4.7
	c3.2-1.4,6.7-2.6,8.5-6.1c-4.6-2-8.7-1.5-12.8,0.5c-2.8,1.4-5.7,2.7-8.5,4.3c-4,2.2-8.2,3.7-12.7,4.3c-1,0.1-2,0-3.1,0
	c-0.1-0.4-0.2-0.7-0.3-1.1c9.2-1.3,16.6-6.4,25.1-10.5c-3.1-1.7-5.6-2.2-8.3-1.3c-5.5,1.8-11,3.7-16.5,5.5c-0.9,0.3-1.9,0.5-2.9,0.7
	c-0.1-0.3-0.3-0.7-0.4-1c2.4-1.3,4.8-2.8,7.3-4c3-1.4,6.1-2.5,9.2-3.8c1.8-0.7,3.8-2.2,2.6-3.9c-1.3-2-0.5-3.1,0.5-4.3
	c2.1-2.5,4.3-4.9,6.9-7.7c-5.1,1.6-8.5,5-12.4,7.7c-4,2.8-6.9,7-12.5,9.5c0.9-1.4,1.1-2,1.5-2.4c3.2-2.9,6.3-5.9,9.7-8.6
	c5.1-4.1,10.5-7.7,16.7-9.8c4-1.4,6.1-4.6,8.5-8.5c-5.2,0.4-9.5,1.8-13.4,3.8C112.3,139.3,108.8,142,105.1,144.4z M316.3,185
	c0.4,6.6,3.4,9.7,9,11.6c17.8,6,35.8,6.8,54.1,2.4c-0.3-0.4-0.5-0.9-0.8-1.1c-6.4-3.6-10.8-9.3-15.7-14.5c-4.7-4.9-9.3-10-14.7-14.2
	c-12.8-9.9-27.5-13.7-43.7-11.6c-2.8,0.4-5.4,1.5-8.1,2.5c-1.5,0.6-1.4,1.7-0.1,2.6c1.2,0.8,2.2,1.8,4,1.3
	c9.6-2.7,19.1-0.8,28.7,0.5c0.5,0.1,0.9,0.6,2.3,1.7c-5.9-0.4-10.7-0.8-15.5-1c-10-0.5-10.8-0.3-14.3,2.2c6.8,1.1,13.1,2.1,19.5,3
	c8.3,1.2,16.3,3.4,23.1,8.6c3.6,2.7,6.9,5.7,10.4,8.6c0.7,0.6,1.2,1.3,1.8,1.9c-0.2,0.3-0.4,0.5-0.6,0.8c-1.8-1-3.7-1.9-5.4-3
	c-2.9-1.9-5.8-3.9-8.6-6.1c-10.1-7.6-22.1-8.2-34.2-9.8c1.9,3.3,1.9,3.4,4.4,3.8c4.4,0.8,8.9,1.4,13.3,2c3.2,0.4,6.3,0.8,8.9,3.1
	c-3.7,0-7.2-0.7-10.8-0.9c-3.5-0.1-6.9-1.5-10.8-0.6c1,2.1,2.1,3.2,4.2,3.7c6.1,1.6,12.1,3.4,18.2,5.2c0.6,0.2,1.2,0.7,1.8,1
	c-0.1,0.3-0.2,0.5-0.3,0.8C329.9,188.2,323.4,186.7,316.3,185z M213,182.9c0.2,0.1,0.4,0.3,0.6,0.4c3.6-5,7.2-9.9,10.6-15
	c4.8-7,9.7-13.9,14.1-21.2c7.2-12,15.1-23.5,23.9-34.4c3.4-4.2,6.2-8.8,9.3-13.3c-6,1.6-11.4,4.2-17,6c-12.2,3.9-24.5,7.3-36.8,11
	c-2.4,0.7-4.8,1.4-7.2,2.2c-1.6,0.5-1.9,1.4-0.8,3c2.1,3,4,6.1,5.8,9.3c7.1,12.5,8.1,25.5,3.2,39C217.2,174.3,215,178.5,213,182.9z
	 M110.1,101.6c0-0.5,0-0.9-0.1-1.4c1-0.3,2.1-0.7,3.1-0.9c11.7-1.9,23.5-2.6,35.3-2.7c8.8,0,17.3,1.1,24.7,6.3
	c2.3,1.6,4.6,1.6,7.2,1.1c1.9-0.4,2.4-1.3,1.1-2.7c-2.2-2.2-4.4-4.7-7.2-6c-12.6-6.2-26.1-9-40.1-9c-7.8,0-14.9,3.2-22.1,5.6
	c-7.2,2.4-14.5,4.8-21.8,7.1c-0.8,0.3-1.7,0.5-3.4,1.1c8,5.6,15.4,10.3,23.8,13.1c10.1,3.3,20.4,4.4,31,4.1c3.7-0.1,5.6-1.4,8-4.3
	c-8.6-1.4-16.8-0.2-24.6-2.3c6.2-0.4,12.3-0.5,18.4-0.4c2.1,0,4.5,0,6.4,0.8c2,0.8,3.4,0.6,5-0.6c1-0.8,2.1-1.3,4.1-2.6
	c-11.1-3.3-21.4-3.3-31.8-3.2c3.6-0.8,7.2-1.7,10.8-1.5c6.8,0.4,13.7,0.6,20.2,2.4c4.3,1.2,7.5,1,11.4-1c-3.7-3.2-8-4-12.3-4.6
	c-11.5-1.5-22.9-0.3-34.4,0.6C118.7,101.2,114.4,101.3,110.1,101.6z M166.7,327.4c-4.7,2-8.1,3.7-11.7,5c-3.3,1.3-5.6,3.2-6.7,6.8
	c-0.7,2.2-1.9,4.3-3.1,6.3c-1.7,2.9-3.6,5.6-6.4,7.6c1.9-5.6,6.2-10,7.6-16.3c-1.1,0.5-1.6,0.8-2.3,1c-4.3,1.3-7,3.9-8.6,8.2
	c-1.2,3.4-2.9,6.7-6.1,9c1.6-3.8,3.3-7.5,5.3-12.1c-1.7,0.6-2.5,0.7-3.2,1.1c-4.9,2.6-8,6.9-9.9,12c-0.7,1.9-1.4,3.7-2.2,5.6
	c-0.1,0.3-0.8,0.4-1.2,0.6c-0.2-0.4-0.6-0.9-0.5-1.3c1.4-4.6,2.5-9.4,4.6-13.7c1.5-3.1,2.1-5.8,1.2-9c-0.9-3.1-1.6-6.3-4.3-9.1
	c-2,5.4-3.8,10.2-5.6,15.1c-0.8-0.7-1-1.2-0.9-1.6c1.6-5.4,3.2-10.8,5-16.2c0.9-2.5,1-4.7-0.8-7.1c-1.2,1.9-2.2,3.5-3.3,5
	c-0.1-2.4,0.3-4.8,1.4-6.6c2.2-3.7,1.2-7.1,0-11.3c-0.8,1.3-1.3,2-1.7,2.7c-5.9,11.3-7.9,23.2-5.3,35.8c1.8,8.8,4.3,17.5,4.4,26.6
	c0,1.6,0.8,1.8,2.3,1.4c10.2-3.2,20-7.4,29.2-12.8c1.8-1.1,3.5-2.5,5-4.1c6.2-6.8,11-14.6,15.6-22.6
	C165.3,331.8,165.7,330,166.7,327.4z M102.1,131.8c-8.4-1-15.7,1.2-23.3,2.3c1.8-1.3,3.7-2.2,5.7-2.8c5.1-1.5,10.4-2.6,15.8-2.1
	c6.1,0.6,10.7-2.6,15.6-5.3c-6.8-0.9-13.5-0.9-20.2-0.1c-8.6,1-17,3-24.8,7.2c-0.6,0.3-1.5,0.2-2.2,0.3c0.3-0.9,0.3-2.1,0.9-2.5
	c1.9-1.3,4-2.5,6.1-3.3c9.3-3.6,18.9-5,28.8-5.2c1.9,0,3.8,0.3,6.3-0.9c-5.4-2.7-10.1-5.1-15.7-4c-5.7,1.2-11.4,2.4-17.1,3.6
	c-1,0.2-2,0.3-3,0.5c6.2-3.8,13.1-5.4,20.2-6.9c-1.7-1.1-3.5-2.4-5.2-2.3c-6.2,0.2-12.2,1.2-17.5,5.1c-5.7,4.2-10.5,9.2-14.2,15.2
	c-2.6,4.2-5.7,7.7-9.9,10.4c-0.8,0.5-1.6,1.2-2.4,1.8c8.9,1.7,17.4,3.5,26.1,5c3.6,0.6,7.3,0.3,10.9,0.6c5.6,0.5,8.5-2.5,10.4-7.8
	c-9.1,0.2-17.8,2.1-26.6,0.8c0.6-0.7,1.4-0.9,2.1-1c7.6-0.8,15.2-1.7,22.8-2.2C96.2,138,99.3,136,102.1,131.8z M40,197.2
	c6.9,0.9,13.2,1.4,19.4,2.5c8.1,1.4,16.2,1.8,24.3,0.7c7.3-1,14.4-2.4,20.9-6.1c1.7-0.9,3.4-1.9,4.6-3.8c-6.2-0.8-12-1.2-17.6-2.3
	c-4.4-0.8-8-0.3-11.7,2.3c-3.6,2.5-7.8,4-12.3,4.4c3.9-3.2,9.5-3.7,13.1-8.3c-2-0.2-3.6-0.2-5-0.5c-4.7-1.1-8.9-0.3-12.8,2.5
	c-1.1,0.8-2.3,1.3-3.6,1.8c-2.7,1-5.3,2.6-9,2c4.9-2.6,9.9-4.2,13.5-7.4c3.5-3.2,7.3-6.7,9.1-11.6c-3.6,1.8-6.9,4-10.2,6.2
	c-3.2,2.1-5.7,5.3-9.5,6.6c6.2-6.4,12.6-12.6,21-16c4.1-1.6,5.6-4.6,7.1-8.8c-6.6,1.8-11.7,5.4-17.4,7.6c0.5-1,1.2-1.8,2-2.2
	c4.1-2.2,8.3-4.2,12.4-6.4c1.8-0.9,3.5-1.9,5.1-3.1c0.6-0.4,0.7-1.4,1-2.1c-0.7-0.3-1.4-0.9-2-0.8c-2.8,0.4-5.6,0.8-8.3,1.6
	c-5.3,1.7-9,5.6-12.5,9.6C53,175,46.9,186.1,40,197.2z M308.7,276.9c-0.6,3.7,0.2,7.3,0.9,10.8c0.7,3.7,2,7.2,3,10.8
	c-1.7-1.4-3.1-3-3.6-4.8c-1.3-4.8-2.8-9.6-3.2-14.5c-0.4-4.2-2.3-6.2-6.2-7.4c-0.8,5.5,1.2,10.5,2,15.7c-0.9-0.6-1.6-1.2-2-2
	c-2.1-4.1-2.9-8.5-2.9-13c0-3.4-1.5-5.5-4.8-7.2c0,2.2-0.2,4,0,5.7c0.6,5.3,1.6,10.4,3.5,15.5c5.8,15.9,18.3,24.3,32.8,30.7
	c1.1,0.5,1.8,0.1,2.3-1.1c0.8-2,1.3-4.2,2.5-6c3.7-5.4,4.2-11.5,4.2-17.7c0-5.8-4.4-12.6-9-14.5c-2.5,6.8,1.6,13.4,0.8,20.2
	c-0.7-1-1.2-2-1.4-3c-0.9-3.4-1.7-6.8-2.6-10.1c-0.8-2.9-2.8-4.4-5.7-4.4c-0.4,0-1.2,0.8-1.1,1.1c0.2,1,0.7,1.8,1,2.8
	c1.9,5.8,3.7,11.6,5.6,17.4c-0.4,0.2-0.8,0.3-1.1,0.5c-0.9-1.6-2-3.2-2.7-4.9c-2-4.9-3.9-9.9-5.7-14.9
	C314,279.6,312.2,277.4,308.7,276.9z M331.9,266.6c-3,3.6-3.2,4-1.1,7c1.2,1.8,2.9,3.2,4.2,5c7,9.5,17.1,13.9,28.1,16.8
	c2.4,0.6,3.5-0.6,3.3-3.4c-0.3-4.6-0.6-9.2-0.8-13.9c-0.1-2.7,0.1-5.3,0-8c-0.1-5.9-1.7-11.5-4.5-16.7c-0.7-1.4-1.8-2.5-2.7-3.8
	c-0.3,0.1-0.6,0.3-0.9,0.4c0.5,2.3,0.9,4.7,1.4,7c-1.8-1.8-2.9-3.8-4.1-5.7c-0.3-0.4-1.1-0.5-1.7-0.7c-0.1,0.6-0.5,1.3-0.3,1.8
	c1.1,3.1,2.4,6.2,3.6,9.3c0.9,2.2,1.7,4.5,0.7,7.7c-2.3-5.6-4.4-10.4-6.2-15.4c-1.5-4.4-4.4-6.7-9.7-7.1
	c6.2,10.4,10.3,21.1,13.8,32.1c-1-0.7-1.8-1.6-2.3-2.6c-1.7-3.4-3.3-6.9-5-10.3c-2.4-4.9-4.8-9.9-7.3-14.7c-0.8-1.5-1.5-3.3-4.1-4
	c0.3,2.3,0.3,4.3,0.7,6.1c1.5,6,4.2,11.5,7.4,16.8c0.8,1.4,2.1,2.7,1.7,5.6c-2.7-4-5-7-6.9-10.3c-1.8-3.2-3.2-6.6-5.1-10.7
	c-2.4,8.4,3.5,14.3,2.8,21.5C335.2,273.4,333.6,270.1,331.9,266.6z M75.4,361.5c4.9-1.4,8.7-2.6,12.5-3.6c4.3-1,8.1-3,11.7-5.5
	c5.6-3.9,5.7-4.2,4.1-10.6c-0.1-0.4-0.4-0.7-0.7-1.1c-2.2,0.9-2.6,3.9-5.4,4.4c0.2-2.8,2-4.1,3.3-5.8c0.9-1.2,2.1-2.3,2.4-3.7
	c0.5-1.9,0.2-4,0.4-6c0.1-1.8,0.4-3.5,0.7-5.3c-4.4,7.1-7.8,14.6-13.8,20.4c6.6-12.5,13.2-25,20-37.8c-2.7,0.3-4.4,1.5-5.7,3.3
	c-2.7,4-5.6,7.9-7.8,12.2c-3.5,6.8-6.4,13.9-9.6,20.8c-0.5,1.1-1.3,2.1-1.9,3.1c1.9-12.7,7-24,14.2-34.7c-1-0.1-1.5-0.2-2-0.1
	c-2.7,0.6-4.7,2.2-6.2,4.6c-2.2,3.7-4.6,7.4-6.9,11.1c-0.3-0.1-0.6-0.3-0.8-0.4c1.8-3.9,3.6-7.8,5.4-11.9c-4.5-0.2-5.4,1-7,4.3
	c-0.7,1.5-0.9,3.4-3.5,5c0.8-2.9,1.4-4.7,1.8-6.6c0.1-0.4-0.1-1.1-0.4-1.2c-0.4-0.2-1.2-0.2-1.4,0c-0.8,1.2-1.8,2.4-2.2,3.7
	c-1.7,6-1.5,12.2-0.8,18.3C76.9,346,78.4,353.4,75.4,361.5z M279.8,306.5c-0.4,0.1-0.7,0.3-1.1,0.4c-2.8-4.1-5.7-8.2-6.9-13.1
	c-0.5-1.8-0.4-3.9-1.4-5.2c-0.9-1.2-2.9-1.7-4.5-2.4c-0.4-0.2-0.9-0.1-1.5-0.1c0,3.6,0,7,0,10.4c-1.1-1.5-1.5-3.1-1.7-4.7
	c-0.4-2.1-0.5-4.3-1-6.4c-0.2-1-0.9-2.6-1.6-2.7c-1.6-0.3-1.4,1.4-1.6,2.5c-0.8,5-0.6,10,2.6,14.2c2.3,3,4.9,5.9,7.6,8.5
	c3.4,3.2,7.1,6.1,10.6,9.1c2.6,2.3,3.9,2.4,5.9-0.6c3.3-5,6.1-10.3,7.7-16.2c1-3.8,1.1-7.7-0.4-11.3c-2.4-6-3.2-12.3-3.4-18.6
	c-0.1-4.1-1.4-6.9-5.6-8.9c-1.6,7.1-0.2,14.1-0.3,21.2c-0.7-1.1-1.2-2.3-1.4-3.6c-0.4-2.5-0.6-4.9-1-7.4c-0.1-0.4-0.5-1-0.7-1
	c-0.4,0-1,0.3-1.2,0.7c-1.4,2.6-1.4,5.5-0.8,8.3c1,5.1,2,10.1,3,15.2c0.1,0.6-0.1,1.3-0.2,2c-0.3,0-0.6,0.1-1,0.1
	c-1.7-6-3.4-12-5.3-18.6c-2.2,3.7-2.3,3.7-1.9,6.2c0.9,5.1,1.8,10.1,4.2,14.8C278,301.7,278.8,304.1,279.8,306.5z M284.2,242.5
	c-1,3.4-0.4,6.2,1.5,9.1c4.5,6.5,10.2,11.9,16.3,16.8c5.1,4.1,11.3,6.3,17.3,8.6c2.9,1.1,5.1,0,5-2.8c-0.2-7.8,2-15.2,3.4-22.6
	c2-10.6,1.1-20.9-2.4-31c-0.7-1.9-1-4.2-3.4-5.6c-0.2,1.8-0.2,3.3-0.5,4.7c-1.3,5.6-1.5,11.2,0.3,16.7c0.2,0.7-0.1,1.6-0.3,3.6
	c-0.9-2.1-1.2-3-1.6-3.8c-0.3-0.5-0.8-0.8-1.2-1.2c-0.3,0.5-0.9,1.1-0.8,1.6c0.3,1.5,0.7,2.9,1.2,4.3c0.8,2.3,1.7,4.5,2.5,6.7
	c-0.3,0.2-0.6,0.3-0.9,0.5c-1.4-1.8-2.8-3.7-4.8-6.3c-0.3,5.6-0.6,10.2,1.5,14.6c1.5,3.2,2,6.6,1.6,10.2c-1-1.2-1.8-2.5-2.2-3.9
	c-1.3-4.8-4.2-8.2-8.7-10.3c-0.7-0.3-1.5-0.5-2.2-0.7c0.1,0.7-0.1,1.6,0.2,2.2c0.8,1.8,1.8,3.6,2.7,5.3c1,1.8,2.2,3.5,2.3,5.8
	c-2.3-2.6-4.3-5.4-6.2-8.3c-1.3-1.9-2.3-4-3.6-6c-1.8-2.6-4.2-3.9-8.2-3.7c3.5,5.2,6.7,9.8,9.9,14.5c-2.3-0.8-4.1-2.1-5.3-3.7
	c-2.5-3.3-4.9-6.7-7-10.3C289.1,245.1,287.3,243.2,284.2,242.5z M331.9,230.4c-0.8,3.4,1.1,4.7,3.4,6.1c9.1,5.4,19.2,7.2,29.6,8.1
	c2.4,0.2,4.9-0.6,7.3-1.2c1.8-0.4,2.4-1.4,1.6-3.3c-1.9-4.2-3.4-8.7-5.5-12.8c-2.6-5-5.5-9.9-8.6-14.6c-1.8-2.7-4.2-5-8.2-6.3
	c2.7,4.3,5,7.9,7.3,11.6c-0.3,0.2-0.5,0.4-0.8,0.6c-0.9-1.1-1.9-2.1-2.8-3.2c-1.2-1.6-2.1-3.5-3.5-4.8c-1.3-1.2-2-4.8-4.2-3.2
	c-2.4,1.7,0.8,3.3,1.7,4.7c2.1,3.4,4.6,6.5,6.9,9.8c0.5,0.6,0.6,1.5,0.9,2.3c-0.3,0.2-0.6,0.4-0.9,0.5c-3-3.7-5.9-7.5-8.9-11.2
	c-1.6-1.9-3.2-3.8-4.9-5.6c-1.7-1.7-3.6-1.6-6.1-0.6c8.1,8.9,15.8,17.4,23.8,26.3c-5.2-1.8-9-4.8-12.4-8.6
	c-3.8-4.2-7.5-8.5-11.5-12.5c-2.4-2.5-5.3-4.5-8.1-6.6c-0.6-0.4-1.6-0.3-3.3-0.7c3.8,4.8,7.2,8.7,10.1,12.9
	c2.5,3.7,4.5,7.7,6.5,11.7c0.5,0.9,0.1,2.7-0.5,3.6c-0.4,0.5-2.2,0.3-3.2,0C335.8,232.6,334.1,231.5,331.9,230.4z M235.5,172.7
	c0.2,0.3,0.5,0.6,0.7,0.8c4-3.9,8.6-6.9,13.9-8.4c4.3-1.2,8.7-2.3,13-3.5c6-1.5,8.2-4.7,7.6-10.8c-0.9-8.1-1.9-16.2-0.2-24.3
	c0.6-2.8,0.4-5.7,0.5-8.6c-0.4-0.2-0.7-0.4-1.1-0.6c-0.4,0.7-0.8,1.4-1.2,2.1c-4.5,6.6-9.3,13-13.3,19.9
	c-5.7,9.8-10.3,20.1-17.3,29.1C237,169.8,236.4,171.3,235.5,172.7z M70,154.3c-5.4-1.9-9.4-1.2-12.9,1.9c-3.2,2.9-6.4,5.8-9.6,8.8
	c-1.7,1.6-3.4,3.2-5.2,4.6c-0.5,0.4-1.4,0.1-2.2,0.2c0.2-0.6,0.2-1.3,0.6-1.7c4.9-5,9.9-9.9,14.8-14.8c0.5-0.5,1.1-1.1,2-2
	c-1.7-0.5-2.8-0.7-3.8-1c-4.7-1.5-8.5-0.1-11.7,3.4c-2.1,2.4-4.5,4.5-6.2,7.1c-5.1,7.8-9.8,15.8-14.7,23.7c-0.1,0.1,0,0.3,0,0.8
	c0.8,0,1.5,0.1,2.3,0c7.3-1.2,14.3-3,21-6.1c2.8-1.3,5-3.1,6.8-5.6C56.3,166.5,61.9,159.7,70,154.3z M312.4,331.2
	c-2.4-7.8-2.8-16.5-8.7-22.8c-0.4,0.1-0.8,0.3-1.2,0.4c2.2,9.1,4.4,18.1,6.6,27.2c-1.4-0.7-2.3-1.6-2.6-2.7c-2-6-3.9-12-5.8-18
	c-0.8-2.8-1.4-5.6-2.2-8.4c-3.2,4.3-1.3,8.4-0.7,12.5c0.6,4.3,1.7,8.6,2.6,12.9c-0.3,0.1-0.7,0.2-1,0.3c-0.3-0.6-0.8-1.2-0.9-1.9
	c-1.3-4.8-2.5-9.6-3.8-14.5c-0.2-0.7-0.8-1.2-1.3-1.8c-0.5,0.8-1.3,1.5-1.5,2.4c-0.1,0.7,0.4,1.6,0.6,2.3c1.1,3.3,2.2,6.7,3.7,11.1
	c-3.1-3-3.9-6.1-5.1-8.9c-0.3-0.8-1-1.8-1.7-2.1c-0.9-0.3-2.5,2.1-2.2,3.3c0.1,0.6,0.4,1.3,0.7,1.9c3.1,6.8,7.2,12.8,13.8,16.7
	c3.4,2.1,6.8,4.1,10.2,6.2c1.4,0.8,2.3,0.6,2.5-1c0.5-4.1,2.9-7.4,4.6-10.9c1.5-3.1,2.4-6.5,3.5-9.8c0.2-0.8,0.1-1.7,0.2-2.5
	c0.1-1.8-1.2-2.3-2.6-2.4c-1.9-0.1-1.4,1.4-1.4,2.5c0,1-0.1,2-0.2,3c-1.4-2.2-2.1-4.3-2.5-6.6c-0.5-2.6-2.1-3.9-5.2-5
	C312.2,320.3,313.8,325.6,312.4,331.2z M239.8,197.3c-0.9-3.2,0.2-5.3,1.4-7.3c3.6-6,7.5-11.8,12.8-16.5c1.7-1.6,3.3-3.3,4.8-5.1
	c0.5-0.5,0.5-1.5,0.7-2.2c-0.8,0-1.6-0.2-2.2,0.1c-1.1,0.4-2,1.1-3,1.8c-5.4,3.7-9.7,8.6-13.4,14c-0.9,1.3-1.8,2.5-2.6,3.8
	c0.9-6.9,6.1-11,10.5-16.8c-4.5,1.6-7.3,3.7-9.1,7c-0.4,0.6-0.9,1.8-1.2,1.8c-2.7-0.4-3.4,1.9-4.5,3.3c-3.5,4.6-4.3,10.4-6,15.7
	c-0.6,1.9,0.3,3,2.1,3.9c2.2,1,4.5,2.2,6.4,3.8c2.8,2.3,5.3,5.1,8,7.5c0.6,0.5,1.9,0.9,2.4,0.5c5-3.4,6.7-8.7,5-15
	c-1.6,1.3-3.1,2.6-4.5,3.8c-0.3-0.3-0.5-0.6-0.8-0.9c1.2-1.5,2.2-3.3,3.8-4.3c2.6-1.7,2.8-3.8,2.1-7c-1.7,1.8-2.9,3.3-4.3,4.6
	c-1.3,1.2-2.2,3.2-4.4,3.3c2.3-3.7,4.5-7.5,7.5-10.4c3.2-3,3.7-6.8,4.6-10.6C249.1,181.7,244.7,189.2,239.8,197.3z M193.3,184.3
	c3,0,5.2,0.2,7.3-0.1c2.6-0.3,5.4,2.5,7.6,0.2c1.8-1.8,2.6-4.6,3.9-6.9c0.2-0.3,0.3-0.6,0.5-0.9c5.4-10.8,7.5-22,4-33.8
	c-1.2-4.1-2.7-8.2-5.8-12.1c-1,2.3-2.1,4.2-2.6,6.2c-0.2,0.9,0.8,2.1,0.9,3.1c0.1,2.6-0.3,5.3,0,7.9c0.8,7.5-0.8,14.5-2.8,21.6
	c-0.1,0.5-0.7,1-1.1,1.4c1.8-9.6,2.5-19.1,0.8-28.8c-1.4,4.1-2.5,8.2-3.2,12.5C201.1,164.8,199.6,174.8,193.3,184.3z M260.9,253.1
	c-0.3,0-0.5,0-0.8-0.1c-0.1,0.6-0.2,1.2-0.2,1.8c-0.1,5.7,0.1,11.3-0.2,17c-0.3,6.2-0.4,6.2,4.8,9.2c1.5,0.9,2.4,0.5,3.2-0.9
	c2.2-3.9,4.5-7.8,6.7-11.7c3.8-6.8,6.1-14,6.2-21.9c0.1-3.6-0.3-4.1-3.4-5.2c-2.2-0.8-2.7-0.6-2.9,1.7c-0.1,2-0.1,3.9-0.2,5.9
	c-0.4,0-0.8,0-1.1,0c-0.4-2.7-0.8-5.4-1.3-8.1c-0.5-2.7-0.6-2.7-3.7-3.3c0,7.1,0,14.3,0,21.9c-1.7-1.5-1.4-3.5-1.7-5.2
	c-0.9-5.9-1.7-11.9-2.7-17.8c-0.4-2.6-1.5-4.9-4.1-7.2c1.4,10.2,2.7,19.6,4,29.1c-0.3,0.1-0.7,0.1-1,0.2
	C262.1,256.7,261.5,254.9,260.9,253.1z M344.5,300.7c-1.7,4.4-1.3,9-1.7,13.4c-0.4,4.5-0.3,9.1-0.4,13.7c-0.4,0-0.8,0-1.2,0.1
	c-1.8-6.1-0.4-12.5-0.9-19c-4.2,2.9-4.4,6.8-3.9,10.9c0.4,3.1,1.1,6.1,1.6,9.1c-1.1-0.4-1.7-1-1.8-1.7c-0.5-3.8-3.7-4.3-6.4-5.3
	c-0.5-0.2-1.4-0.2-1.8,0.1c-0.3,0.2-0.3,1.2,0,1.7c3.6,6.3,8,11.9,14.3,15.7c1.7,1.1,2.5,0.5,3.3-1.4c2-4.9,4-9.9,6.5-14.6
	c3.4-6.4,3.6-13.4,4.3-20.3c0.1-0.8-0.5-1.6-0.8-2.4c-0.3,0-0.6,0.1-0.9,0.1c0,3.1,0,6.1,0,9.2c-1.2-2.4-1.5-4.7-1.8-7.1
	c-0.4-2.9-2-4.6-5.4-5.4c0.3,2.4,0.6,4.3,0.7,6.2c0.2,5.1,0.4,10.3,0.5,15.4c0,0.7-0.7,1.4-1.1,2.1
	C347.9,314.1,346.8,307.4,344.5,300.7z M266.6,310.7c1.4,7.9,6.6,13.5,9.7,20.1c-10.4-8.1-13.9-20.6-20.1-31.8
	c-3.5,7.4-2.4,8.9-0.9,13.3c4,11.4,12.1,19.2,22.3,25.1c2.8,1.6,5.6,3.1,8.9,5c0-2.6,0.3-4.4,0-6.2c-1.2-6.8-2.6-13.4-9.6-16.9
	c-1.4-0.7-2.5-2.2-3.8-3.2C270.9,314.3,268.8,312.5,266.6,310.7z M41.6,203.8c-7.8-0.7-8.9-0.2-12.5,5c-1,1.5-2,3.1-3.1,4.5
	c-1.1,1.4-1,2.4,0.9,2.8c10.3,2,20.7,2.9,31.2,1.5c7.5-1,12-5.5,16.5-11.1c-3.5-0.4-6.2-0.2-8.8,1.8c-1.9,1.5-4.4,2.3-6.7,3.3
	c-0.4,0.2-1-0.2-1.5-0.4c0.2-0.4,0.4-0.9,0.7-1.2c1.7-1.3,4.1-1.6,5.7-3.6c-4.1-2.4-7.1,0.1-10.1,1.5c-2.5,1.2-4.9,2.8-7.4,4.1
	c-0.3,0.2-0.9-0.1-1.4-0.1c0.2-0.5,0.3-1.3,0.7-1.5c2.6-1.6,5.4-3,7.7-5.7c-3.4-0.9-6.2-0.7-8.7,0.7c-3.3,1.9-6.5,4-9.8,6
	c-1,0.6-2.1,1.1-3.2,1.7c-0.2-0.3-0.4-0.6-0.6-0.9C34.5,209.7,37.8,207,41.6,203.8z M191,158.6c-4.1,1.3-6.4,3.6-7.4,7.3
	c-0.6,2.2-1.4,4.4-2.2,6.6c-0.3,0.8-0.4,1.6-0.8,2.4c-0.2,0.3-0.7,0.5-1,0.8c-0.3-0.4-0.8-0.8-0.8-1.1c0.3-2.3,0.7-4.6,1.1-6.9
	c0.2-1.1,0.4-2.3,0.7-3.4c-0.3-0.2-0.7-0.4-1-0.6c-1.4,1.3-3.4,2.4-3.9,4c-1.1,3.3-1.3,6.8-1.8,10.2c-0.2,1.5,0.5,2.5,1.9,3.2
	c2.7,1.3,5.3,2.8,8,4c3.8,1.7,7.2,0.2,8.6-3.6c0.7-1.9,1.4-3.7,2.1-5.6c2.7-7.7,3.9-15.7,5-24.4c-2.8,1.7-4.6,2.9-5.3,5.9
	c-1.2,5-3.1,9.8-4.7,14.6c-0.4-0.1-0.7-0.2-1.1-0.3C189.2,167.4,190,163.2,191,158.6z M134.8,387.3c-0.4-0.4-0.8-0.9-1.2-1.3
	c1.4-1.1,3-2.1,4.2-3.4c2.6-2.8,5.3-5.6,7.4-8.7c2.6-3.8,2.4-4.2,0.2-9.1c-4.1,4.5-6.3,10.1-9.6,15c0-5.3,4-9.1,5.3-14.2
	c-5.5,1.5-8.4,4.8-10.2,9.8c-2,5.8-2.7,12.1-7.3,16.7c-0.3,0.3-0.4,1.2-0.3,1.3c0.7,0.3,1.5,0.8,2.2,0.7c8.1-1.2,16.1-2.7,23.5-6.5
	c1.8-0.9,3.4-2.1,4.9-3.3c0.4-0.3,0.4-1.5,0.2-2.1c-0.6-1.5-1.8-1.6-3-0.4c-2,2-3.5,4.5-6.4,5.5c0.1-0.8,0.3-1.4,0.7-1.9
	c1.4-1.8,3-3.6,4.3-5.5c1.2-1.7,0.9-5-0.6-5.2c-0.9-0.1-1.9,1.3-2.8,2.2c-0.5,0.4-0.8,1-1.3,1.5
	C142.1,381.8,138.8,384.9,134.8,387.3z M97.2,378c-0.3,0-0.6,0-1,0c-0.3-0.6-0.6-1.1-0.7-1.7c-1.2-4-0.3-7.9,0.5-11.8
	c0.2-1-0.2-2.1-0.3-3.1c-1.1,0.5-2.5,0.9-3.3,1.7c-0.6,0.6-0.7,1.8-0.9,2.8c-0.5,2.3-0.9,4.6-1.3,6.8c-0.9-1.4-1.2-2.9-1.3-4.3
	c-0.1-2.3,0-2.3-0.9-4.6c-1,10.8,2.3,19.1,8.8,26.7c3-4.4,5.9-8.3,8.5-12.4c4-6.4,4.2-15.5,0.6-21.1c-0.3,5.3-0.9,10.2-3.6,14.9
	c0.4-4.7,0.8-9.4,1.1-14.1c-0.4-0.1-0.7-0.1-1.1-0.2C97.6,363.6,98,371,97.2,378z M121.6,377.2c-0.3-0.3-0.6-0.5-0.9-0.8
	c-2.9,3.5-5.8,7-8.8,10.4c-0.2-0.1-0.4-0.1-0.6-0.2c0.8-2.3,1.5-4.6,2.3-7c-0.3-0.1-0.6-0.3-0.9-0.4c-1.2,1.9-2.3,3.8-3.9,6.3
	c-0.1-1.2-0.2-1.8-0.2-2.3c0-0.7,1-1.7-0.5-1.8c-0.5,0-1.3,1-1.5,1.6c-0.9,3.5,0.4,6.5,2.3,9.3c0.7,1.1,1.5,0.9,2.5,0.3
	c3.2-2.1,6.4-4.2,9.5-6.3c4.6-3.1,5-4.1,3.9-10.4c-1.6,2.7-3.1,5.1-4.6,7.5c-0.3-0.2-0.6-0.3-0.9-0.5
	C120.2,381,120.9,379.1,121.6,377.2z M322.3,349.9c1-2.2,2.1-4.4,2.9-6.7c1.2-3.3,2.1-6.6,3-10c0.1-0.5-0.5-1.1-0.7-1.7
	c-0.5,0.3-1.1,0.6-1.4,1c-1.6,3.1-3.5,6.1-4.6,9.4c-1.1,3.6-1.5,7.4-2.1,11.2c-0.1,0.6,0.6,1.3,1,2c0.5-0.3,1.2-0.5,1.6-1
	c3.5-3.5,7-7.1,10.4-10.7c0.9-1,2-1.9,2.5-3.1c0.3-0.6-0.1-1.9-0.6-2.5c-0.8-1-2-1.6-3-2.4c-0.3,0.4-0.6,0.7-0.8,1.1
	c-0.6,1.5-1.1,3.1-1.8,4.6C327.2,344.6,325.7,347.8,322.3,349.9z M340,232.6c-1.8-6.8-10-18.1-15.6-21.9
	C328.3,218.9,330.3,227.9,340,232.6z M38,221.9c3.2,5.7,6.1,6.7,11.4,4c-2.4-0.5-4.6-0.9-6.8-1.5c-0.5-0.1-0.8-0.9-1.3-1.3
	c0.5-0.3,1.1-0.8,1.6-0.8c1,0,1.9,0.4,2.9,0.6c4.7,1,9.1,0.2,14.2-2C52.1,221.2,45,221.5,38,221.9z M28.4,204.4
	c3-5.4,5.8-10.4,8.9-16.1c-6.1,1.9-6.6,7.3-9.2,11C27.1,200.8,27,202.3,28.4,204.4z M314,353.8c0.1-0.3,0.3-0.6,0.4-0.9
	c-4.1-1.6-8.3-3-12.2-4.9c-3.9-1.9-7.5-4.4-11.2-6.7C296.7,349.3,305.8,350.6,314,353.8z M164.6,167.1c-3.7,2.3-4.6,6.3-6.4,9.7
	c-0.3,0.6-0.3,1.9,0,2.1c1.2,0.7,2.2,0.1,2.6-1.2C162.1,174.2,163.4,170.7,164.6,167.1z M256,230.1c1.1-3.6,0.8-6.8-1.4-9.5
	c-0.4-0.5-1.3-0.5-2-0.7c-0.2,0.7-0.8,1.5-0.6,2C253.2,224.7,254.6,227.4,256,230.1z M168,168.9c-1.7,3.4-2.9,5.8-4,8.1
	c-0.3,0.6-0.2,1.2-0.3,1.9c1.1,0.2,2.2,0.5,3.3,0.4c0.4,0,1-0.9,1-1.3C168.1,175.3,168,172.7,168,168.9z M155.2,173.2
	c-1.9,2.3-3.5,4.2-4.8,5.9C154.6,179.7,155,179.4,155.2,173.2z M29.6,190.2c-2.9,2.5-2.9,2.5-2.2,6.7
	C28.2,194.4,28.8,192.7,29.6,190.2z M53.3,231c-0.3-0.3-0.3-0.5-0.5-0.5c-0.9-0.2-1.7-0.4-2.6-0.6c0,0-0.1,0.3-0.1,0.3
	c0.8,0.4,1.6,0.8,2.5,1.1C52.7,231.3,52.9,231.2,53.3,231z M100.8,200.1c0.1-0.1,0.2-0.1,0.4-0.2c-0.2-0.1-0.5-0.2-0.7-0.3
	c-0.1,0-0.2,0.1-0.4,0.2C100.3,199.9,100.5,200,100.8,200.1z M222.4,193.5c-0.1-0.2-0.3-0.5-0.4-0.7c-0.1,0.1-0.3,0.3-0.3,0.4
	c0,0.3,0.2,0.6,0.2,0.9C222.1,193.8,222.3,193.6,222.4,193.5z"/>
<path d="M210.7,195.7c-0.7,1-1.4,2-2.2,3.1c-4.6,6.1-9.6,12-13.8,18.3c-7.3,10.9-14.3,22.1-21.4,33.1c-4.9,7.5-9.8,15-14.7,22.5
	c-0.4,0.6-0.7,1.2-1.2,1.5c-1.3,0.7-2,2.9-4.1,1.8c0.9-1.1,1.9-2.1,2.7-3.2c2.6-3.6,5.6-7.1,7.5-11.1c7.8-15.5,16.9-30.2,26.9-44.3
	c4.1-5.8,8.4-11.6,12.8-17.2c1.6-2.1,3.7-3.8,5.7-5.6c0.3-0.2,0.9-0.1,1.4,0C210.4,194.7,210.4,195.2,210.7,195.7z"/>
<path d="M169.5,235.1c1.1-5.4,3.5-10.2,6.4-14.8c2.6-4.1,5.1-8.2,8-12c2.7-3.5,6-6.6,9.1-9.8c0.6-0.6,1.3-1.1,2.1-1.3
	c0.5-0.2,1.2,0.2,1.7,0.3c-0.2,0.6-0.1,1.4-0.5,1.7c-2,1.8-4.2,3.3-6,5.1c-2,2-3.9,4.1-5.4,6.4c-4.5,6.9-8.9,14-13.3,21
	C170.9,232.9,170.2,234,169.5,235.1z"/>
<path d="M166.5,223.7c0.2-0.7,0.2-1.6,0.6-2.2c4.1-6.8,8.3-13.5,12.4-20.3c0.3-0.4,0.6-0.8,1-1.1c2.4-2.6,4.8-3.3,4.6-2.4
	c-0.3,1.4-1.6,2.6-2.5,3.8c-3.5,4.8-7,9.6-10.3,14.5c-1.8,2.6-3.2,5.3-4.8,8C167.1,223.9,166.8,223.8,166.5,223.7z"/>
<path d="M192.4,251.2c3.8-7.8,7.5-15.7,13.7-23.2c-0.4,3.6-9.1,18.5-13.3,23.6C192.6,251.5,192.5,251.3,192.4,251.2z"/>
<path d="M197.4,223.7c0.3-0.9,0.4-1.9,0.9-2.6c2.8-4.7,5.7-9.3,8.5-13.9c0.5-0.8,1.1-1.6,1.8-2.3c0.2-0.2,0.9-0.1,1.3,0
	c0.1,0,0.3,0.6,0.2,0.8c-3.8,6.3-7.7,12.5-11.6,18.8C198.2,224.2,197.8,223.9,197.4,223.7z"/>
<path d="M192.5,233.9c-5.1,8.9-9.6,16.8-14,24.7c-0.6-3.7,2.1-5.7,3.2-8.5c1.2-2.9,2.9-5.6,4.3-8.5
	C187.3,238.9,188.5,236,192.5,233.9z"/>
<path d="M201.7,251.7c3-4.5,6.1-9.1,9.1-13.6c0.2-0.3,0.8-0.4,1.3-0.7C211.6,241.5,206.6,248.9,201.7,251.7z"/>
<path d="M175.3,200.4c-2.6,4-5.3,7.9-7.9,11.9c1-5.1,3.4-9.2,7-12.5C174.6,199.9,174.9,200.2,175.3,200.4z"/>
<path d="M169.3,273c0.9-4,1-4.2,5.9-6.2C172.7,269.3,171,271.1,169.3,273z"/>
<path d="M209.3,220.3c0.5-2.4,1.2-4.5,3.8-5.4c0.1,0,0.3,0.2,0.3,0.4C213.2,217.8,211.6,219.3,209.3,220.3z"/>
<path d="M155.6,261.6c1.2-1.7,2.4-3.3,3.7-4.9c0.1-0.2,0.6-0.1,0.8,0c0.2,0.1,0.3,0.6,0.2,0.8c-1.2,1.7-2.5,3.3-3.7,5
	C156.3,262.2,155.9,261.9,155.6,261.6z"/>
<path d="M167.7,242.5c-0.8,1.1-1.5,2.3-2.5,3.7C165.1,243.8,165.1,243.8,167.7,242.5z"/>
<path d="M184.7,267.4c-0.5-0.6-0.9-1.1-0.9-1.2c0.5-0.6,1-1.1,1.6-1.5c0.2-0.1,0.7,0.3,1.1,0.5C185.9,265.8,185.4,266.5,184.7,267.4
	z"/>
<path d="M192.8,251.6c-0.8,1.3-1.6,2.6-2.4,3.9c-0.4-2.1,0.6-3.3,2-4.2C192.5,251.3,192.6,251.5,192.8,251.6z"/>
<path d="M162.4,236.5c-0.1,0.8,0,1.1-0.1,1.4c-0.4,0.6-0.9,1.2-1.4,1.8c0,0-0.7-0.4-0.6-0.5c0.4-0.8,0.9-1.6,1.4-2.3
	C161.7,236.7,161.9,236.7,162.4,236.5z"/>
<path d="M299.7,228.8c-1.2-1.3-1.9-1.9-2.4-2.6c-8.1-12.4-14.4-25.5-18-39.9c-1.4-5.5-2.7-11-4.1-16.5c-0.2-0.8-0.6-1.6-0.5-2.4
	c0.1-1.2,0.5-2.4,0.8-3.6c0.7,1,1.7,1.9,1.9,3c4,19.2,10.3,37.5,19.6,54.8C298,223.6,299.4,225.5,299.7,228.8z"/>
<path d="M284.2,215.6c-0.9-1.5-1.8-2.9-2.7-4.4c-3.8-6.8-6.5-14.1-8.2-21.7c-0.8-3.4-1.9-6.7-2.8-10c-0.4-1.5-1.5-3.1,0.6-5
	c4.2,13.9,6.2,28.3,14.4,40.5C285,215.2,284.6,215.4,284.2,215.6z"/>
<path d="M298.4,211.9c-3.8-5-12.6-31.6-12.2-36.7C291.1,186.7,294.2,198.9,298.4,211.9z"/>
<path d="M264.4,183.6c2.4,11.7,8.2,21.8,13.3,32.2c-0.3,0.2-0.6,0.3-0.9,0.5c-1.2-1.9-2.6-3.6-3.6-5.6c-2.9-5.8-5.7-11.6-8.3-17.5
	C263.6,190.2,262.8,187,264.4,183.6z"/>
<path d="M306.1,215c-3.9-11.1-7.8-22.1-12.1-34.3C298.5,185.2,305.5,204.6,306.1,215z"/>
<path d="M301.8,224c1-0.9,1.3-1.2,1.6-1.5c0.4,0.5,1,0.9,1.2,1.4c0.1,0.3-0.2,0.9-0.4,1.3C303.4,224.9,302.7,224.5,301.8,224z"/>
<path d="M287.5,225.7c-0.3,0.2-0.6,0.4-0.8,0.5c-0.3-0.5-0.6-0.9-0.9-1.4c0.3-0.1,0.6-0.3,0.8-0.2
	C286.9,225,287.1,225.4,287.5,225.7z"/>
<path d="M310.6,224.7c-0.3,0.5-0.4,0.7-0.6,1c-0.3-0.3-0.7-0.6-1-0.9c0-0.1,0.4-0.7,0.5-0.7C309.9,224.2,310.2,224.5,310.6,224.7z"
	/>
<path d="M197,126.6c-10.7,3.5-19.5,9.9-28.2,16.9c0.4-0.7,0.7-1.5,1.3-2.1c5.8-5.9,12.8-10,19.9-14C192,126.2,194.4,125.4,197,126.6
	z"/>
<path d="M184.6,142.1c-3.1,4.2-11.5,8.4-17.9,8.6c3-1.4,6-2.9,9-4.1C178.8,145.4,180.8,142.4,184.6,142.1z"/>
<path d="M157.8,147.7c2.2-0.7,4.5-1.3,7.1-2.1C162.7,147.9,162.7,147.9,157.8,147.7z"/>
<path d="M249.5,249.9c-0.6-5.3-1.3-10.7-1.9-16c3.5,4.9,3.3,10.4,3,15.9C250.2,249.8,249.8,249.8,249.5,249.9z"/>
<path d="M242.4,243.3c1,6,2.6,12,1.4,18.3c-0.8-6.1-1.6-12.1-2.4-18.2C241.7,243.4,242,243.4,242.4,243.3z"/>
<path d="M231.7,211.9c3,2.3,4.7,5.2,4.8,10C234.6,217.9,233.1,214.9,231.7,211.9z"/>
<path d="M238.5,227.5c1.8,3.3,2.3,6.7,1.1,10.4c-0.3-3.5-0.6-7.1-0.9-10.6L238.5,227.5z"/>
<path d="M230.9,287c-1.8-1.4-1.5-3.3-1.5-5.9C231.5,283.2,231.4,285,230.9,287z"/>
<path d="M245.2,275.3c0.3-1.1,0.7-2.2,1.1-3.3c0,0,0.4,0.1,0.4,0.1c0,1.2,0,2.3,0,3.5C246.1,275.5,245.7,275.4,245.2,275.3z"/>
<path d="M227.4,269.1c0.1,0.8,0.2,1.4,0.2,2c0,0.2-0.4,0.4-0.5,0.6c-0.1-0.6-0.3-1.2-0.4-1.8C226.7,269.7,227,269.5,227.4,269.1z"/>
<path d="M238.7,227.3c-0.4-0.2-0.8-0.4-1.1-0.7c-0.2-0.2-0.1-0.5-0.1-0.8c0.3,0.2,0.7,0.4,0.9,0.7c0.2,0.2,0.1,0.6,0.2,0.9
	L238.7,227.3z"/>
<path d="M246.5,286c-0.1,0.3-0.3,0.5-0.4,0.8c-0.1-0.1-0.3-0.3-0.3-0.3c0.1-0.3,0.2-0.5,0.3-0.8C246.3,285.7,246.4,285.9,246.5,286z
	"/>
<path d="M155.5,202.8c-4.1,1.9-7.2,3.7-10.5,4.8c-5.2,1.7-9.7,4.3-13.9,7.6c-3.6,2.8-7.5,5.3-12.5,7.7c1-2.6,2.6-3.1,3.8-4
	c3.9-2.8,7.8-5.7,11.8-8.3c2.6-1.7,5.6-2.9,8.4-4.2c1.8-0.8,3.6-1.5,5.3-2.4C149.9,202.8,151.9,201.7,155.5,202.8z"/>
<path d="M110.3,211.1c2.8-5.6,13.3-13.8,18.7-15.1c0.7-0.2,1.5-0.1,2.4,0.3C123.5,199.9,116.7,205.3,110.3,211.1z"/>
<path d="M143.1,190.6c1.9-2.7,4.2-4.4,7.2-5c0.9-0.2,1.8,0.3,2.8,0.4c-0.6,0.6-1.2,1.4-1.9,1.7C148.5,188.8,145.8,189.7,143.1,190.6
	z"/>
<path d="M149.2,216.4c-3.2,1.4-6.4,2.8-10.7,4.7C142.8,216.1,144.5,215.3,149.2,216.4z"/>
<path d="M129.1,190.1c-2.2,1.3-4.4,2.5-6.6,3.8C123.8,191.1,126,189.8,129.1,190.1z"/>
<path d="M91.1,231.2c1.7-2.6,3.3-3,4.8-3.4c0.2,0.3,0.3,0.6,0.5,0.9c-0.6,0.4-1.2,0.9-1.8,1.2C93.7,230.2,92.9,230.5,91.1,231.2z"/>
<path d="M103.5,226.2c-0.4-0.5-0.6-0.7-0.8-0.9c0.8-0.6,1.7-1.2,2.5-1.8c0.1-0.1,0.5,0.3,0.7,0.5
	C105.1,224.7,104.3,225.4,103.5,226.2z"/>
<path d="M127.6,227.8c1.2-0.9,2.4-1.9,4.2-3.4C131.2,227.3,129.7,227.7,127.6,227.8z"/>
<path d="M200.5,352.8c0.4-1.7,0.8-3.5,1.2-5.2c1.3,2.2,0.8,3.9-0.2,5.5C201.2,352.9,200.8,352.8,200.5,352.8z"/>
<path d="M196.1,341.5c-0.2-1.3-0.5-2-0.3-2.7c0.1-0.4,0.8-0.7,1.2-1.1c0.1,0.8,0.3,1.5,0.2,2.3C197.2,340.4,196.8,340.7,196.1,341.5
	z"/>
<path d="M126.6,305c-1.4-2.2-0.2-3.6,1.2-5.7C129,302,127.4,303.3,126.6,305z"/>
<path d="M141.3,320c0.2-0.1,0.5-0.2,0.7-0.3c0,0,0.1,0.2,0.2,0.3c-0.2,0.1-0.4,0.2-0.7,0.3C141.5,320.3,141.4,320.1,141.3,320z"/>
<path d="M92.8,289.4c1-1.7,2-3.3,3.5-5.8C96.3,286.7,96.3,286.7,92.8,289.4z"/>
<path d="M84.8,277.3c-0.4,0.2-1.2,0.6-1.9,0.9c0,0-0.5-0.6-0.4-0.8c0.4-0.6,0.9-1.2,1.4-1.8C84.1,275.9,84.2,276.1,84.8,277.3z"/>
<path d="M341.7,171.7c-0.2-0.4-0.6-1.1-0.9-1.8c0.3-0.1,0.7-0.4,0.8-0.4c0.6,0.4,1.2,0.9,1.8,1.4C343.1,171,342.8,171.2,341.7,171.7
	z"/>
<path d="M281.2,91.6c-0.7,0.5-1,1-1.4,1c-0.4,0-0.8-0.3-1.3-0.5c0.2-0.4,0.4-1.1,0.5-1.1C279.7,91.1,280.3,91.3,281.2,91.6z"/>
<path d="M138.1,92.3c5.4-1.1,10.8-0.8,16,1.8C148.8,93.5,143.5,92.9,138.1,92.3z"/>
<path d="M168.5,96.9c3.1,0.1,3.1,0.1,4.8,2.4c-1.7-0.5-3.4-1-5.1-1.5C168.3,97.6,168.4,97.3,168.5,96.9z"/>
<path d="M134.8,92.1c-0.1,0-0.3,0.1-0.4,0.1c0-0.2-0.1-0.3-0.1-0.5c0.1,0,0.3,0,0.4,0.1C134.8,91.9,134.8,92,134.8,92.1z"/>
<path d="M99.4,192.6c-4.3,2.4-7.9,4.4-12.5,5C89.6,194.6,94.9,192.5,99.4,192.6z"/>
<path d="M159.4,347.6c0.8-0.2,2.2-2.3,2.1,0.4c-0.2,4-0.9,7.9-1.4,11.7c-1.9-2.7-2-5.5-0.5-12.2L159.4,347.6z"/>
</svg>
